<?xml version="1.0" standalone="no"?>
<!DOCTYPE svg PUBLIC "-//W3C//DTD SVG 1.1//EN" "http://www.w3.org/Graphics/SVG/1.1/DTD/svg11.dtd" >
<svg xmlns="http://www.w3.org/2000/svg">
<metadata>Generated by IcoMoon</metadata>
<defs>
<font id="icomoon" horiz-adv-x="1024">
<font-face units-per-em="1024" ascent="870.850439882698" descent="-153.14956011730206" />
<missing-glyph horiz-adv-x="1024" />
<glyph unicode="&#x20;" d="" />
<glyph unicode="&#x21;" glyph-name="cpu" d="M273.675 584.319h477.65v-477.65h-477.65zM939.926 481.819c10.25 0 16.4 7.175 16.4 17.425s-6.15 17.425-16.4 17.425h-51.25v67.65h51.25c10.25 0 16.4 7.175 16.4 17.425s-6.15 17.425-16.4 17.425h-51.25v33.825c0 37.925-30.75 68.675-68.675 68.675h-33.825v51.25c0 10.25-7.175 16.4-17.425 16.4s-17.425-6.15-17.425-16.4v-51.25h-67.65v51.25c0 10.25-7.175 16.4-17.425 16.4s-17.425-6.15-17.425-16.4v-51.25h-67.65v51.25c0 10.25-7.175 16.4-17.425 16.4s-17.425-6.15-17.425-16.4v-51.25h-67.65v51.25c0 10.25-7.175 16.4-17.425 16.4s-17.425-6.15-17.425-16.4v-51.25h-67.65v51.25c0 10.25-7.175 16.4-17.425 16.4s-17.425-6.15-17.425-16.4v-51.25h-67.65v51.25c0 10.25-7.175 16.4-17.425 16.4s-17.425-6.15-17.425-16.4v-51.25h-33.825c-37.925 0-68.675-30.75-68.675-68.675v-33.825h-51.25c-10.25 0-16.4-7.175-16.4-17.425s6.15-17.425 16.4-17.425h51.25v-67.65h-51.25c-10.25 0-16.4-7.175-16.4-17.425s6.15-17.425 16.4-17.425h51.25v-67.65h-51.25c-10.25 0-16.4-7.175-16.4-17.425s6.15-17.425 16.4-17.425h51.25v-67.65h-51.25c-10.25 0-16.4-7.175-16.4-17.425s6.15-17.425 16.4-17.425h51.25v-67.65h-51.25c-10.25 0-16.4-7.175-16.4-17.425s6.15-17.425 16.4-17.425h51.25v-67.65h-51.25c-10.25 0-16.4-7.175-16.4-17.425s6.15-17.425 16.4-17.425h51.25v-33.825c0-37.925 30.75-68.675 68.675-68.675h33.825v-51.25c0-10.25 7.175-16.4 17.425-16.4s17.425 6.15 17.425 16.4v51.25h67.65v-51.25c0-10.25 7.175-16.4 17.425-16.4s17.425 6.15 17.425 16.4v51.25h67.65v-51.25c0-10.25 7.175-16.4 17.425-16.4s17.425 6.15 17.425 16.4v51.25h67.65v-51.25c0-10.25 7.175-16.4 17.425-16.4s17.425 6.15 17.425 16.4v51.25h67.65v-51.25c0-10.25 7.175-16.4 17.425-16.4s17.425 6.15 17.425 16.4v51.25h67.65v-51.25c0-10.25 7.175-16.4 17.425-16.4s17.425 6.15 17.425 16.4v51.25h33.825c37.925 0 68.675 30.75 68.675 68.675v33.825h51.25c10.25 0 16.4 7.175 16.4 17.425s-6.15 17.425-16.4 17.425h-51.25v67.65h51.25c10.25 0 16.4 7.175 16.4 17.425s-6.15 17.425-16.4 17.425h-51.25v67.65h51.25c10.25 0 16.4 7.175 16.4 17.425s-6.15 17.425-16.4 17.425h-51.25v67.65h51.25c10.25 0 16.4 7.175 16.4 17.425s-6.15 17.425-16.4 17.425h-51.25v67.65h51.25zM786.176 89.243c0-10.25-7.175-17.425-17.425-17.425h-512.5c-10.25 0-17.425 7.175-17.425 17.425v512.5c0 10.25 7.175 17.425 17.425 17.425h512.5c10.25 0 17.425-7.175 17.425-17.425v-512.5z" />
<glyph unicode="&#x22;" glyph-name="clock" horiz-adv-x="704" d="M0 345.494q0 124.025 88.15 218.325l44.075 241.9q4.1 22.55 21.525 36.9t42.025 15.375h256.25q22.55 0 39.975-15.375t22.55-36.9l46.125-250.1q58.425-65.6 73.8-147.6l2.050 1.025q2.050 1.025 4.1 1.025 25.625 0 45.1-19.475t19.475-45.1-19.475-45.1-45.1-18.45q-2.050 0-4.1 0l-2.050 1.025q-17.425-86.1-77.9-151.7l-46.125-246q-4.1-22.55-20.5-36.9t-41-15.375h-256.25q-24.6 0-41 15.375t-21.525 36.9l-46.125 246q-84.050 92.25-84.050 214.225zM64.575 345.494q0-105.575 74.825-181.425t181.425-74.825 180.4 74.825 75.85 181.425-75.85 181.425-180.4 74.825-181.425-74.825-74.825-181.425zM96.35 345.494q0 14.35 9.225 22.55t22.55 9.225 23.575-9.225 8.2-22.55-8.2-22.55-23.575-9.225-22.55 9.225-9.225 22.55zM151.7 210.194q0 13.325 9.225 22.55t23.575 8.2 22.55-8.2 9.225-22.55-9.225-22.55-22.55-10.25-23.575 10.25-9.225 22.55zM151.7 481.819q0 13.325 9.225 22.55t23.575 9.225 22.55-9.225 9.225-22.55-9.225-23.575-22.55-8.2-23.575 8.2-9.225 23.575zM159.9 69.768l32.8-173.225h256.25l31.775 173.225q-75.85-44.075-159.9-44.075t-160.925 44.075zM164 622.244q75.85 43.050 159.9 43.050t160.925-43.050l-32.8 171.175h-256.25zM288.025 153.818q0 13.325 9.225 22.55t23.575 9.225 22.55-9.225 9.225-22.55-9.225-23.575-22.55-9.225-23.575 9.225-9.225 23.575zM288.025 345.494q0 14.35 10.25 22.55l166.050 137.35q8.2 6.15 14.35-1.025t2.050-14.35l-77.9-96.35-60.475-71.75q-8.2-8.2-21.525-8.2t-23.575 9.225-9.225 22.55zM288.025 538.194q0 13.325 9.225 22.55t23.575 9.225 22.55-9.225 9.225-22.55-9.225-23.575-22.55-9.225-23.575 9.225-9.225 23.575zM424.35 210.194q0 13.325 9.225 22.55t21.525 8.2 23.575-8.2 10.25-23.575q0-12.3-10.25-21.525t-23.575-10.25-21.525 10.25-9.225 22.55zM480.725 345.494q0 14.35 9.225 22.55t22.55 9.225 22.55-9.225 9.225-22.55-9.225-22.55-22.55-9.225-22.55 9.225-9.225 22.55z" />
<glyph unicode="&#x23;" glyph-name="watch" horiz-adv-x="769" d="M384.375 345.494h128.125v-63.55h-191.675v256.25h63.55v-192.7zM768.751 345.494c0-142.475-76.875-266.5-191.675-332.1v-116.85c0-34.85-29.725-63.55-64.575-63.55h-256.25c-34.85 0-63.55 28.7-63.55 63.55v116.85c-115.825 65.6-192.7 189.625-192.7 332.1s76.875 266.5 192.7 332.1v116.85c0 34.85 28.7 63.55 63.55 63.55h256.25c34.85 0 64.575-28.7 64.575-63.55v-116.85c114.8-65.6 191.675-189.625 191.675-332.1zM705.201 345.494c0 177.325-143.5 320.825-320.825 320.825s-319.8-143.5-319.8-320.825c0-177.325 142.475-319.8 319.8-319.8s320.825 142.475 320.825 319.8z" />
<glyph unicode="&#x24;" glyph-name="new" d="M1018.851 300.394l-75.85 118.9c-6.15 9.225-8.2 21.525-5.125 31.775l29.725 138.375c4.1 21.525-8.2 43.050-28.7 49.2l-134.275 44.075c-11.275 3.075-20.5 10.25-25.625 20.5l-65.6 125.050c-10.25 19.475-33.825 27.675-54.325 19.475l-130.175-53.3c-10.25-4.1-22.55-4.1-32.8 0l-130.175 53.3c-20.5 8.2-44.075 0-54.325-19.475l-65.6-125.050c-5.125-10.25-14.35-17.425-24.6-20.5l-135.3-44.075c-20.5-6.15-32.8-27.675-28.7-49.2l29.725-138.375c3.075-10.25 1.025-22.55-5.125-31.775l-75.85-118.9c-11.275-19.475-7.175-44.075 10.25-57.4l111.725-86.1c9.225-7.175 14.35-17.425 16.4-27.675l19.475-140.425c3.075-21.525 21.525-37.925 44.075-36.9l140.425 5.125c11.275 1.025 22.55-3.075 30.75-11.275l104.55-94.3c16.4-15.375 41-15.375 57.4 0l104.55 94.3c8.2 8.2 19.475 12.3 30.75 11.275l141.45-5.125c21.525-1.025 41 15.375 44.075 36.9l18.45 140.425c2.050 10.25 7.175 20.5 16.4 27.675l111.725 86.1c17.425 13.325 21.525 37.925 10.25 57.4zM393.6 175.343l-124.025 86.1 51.25-117.875-34.85-15.375-77.9 182.45 35.875 15.375 127.1-89.175-53.3 120.95 34.85 15.375 77.9-182.45-36.9-15.375zM469.45 207.119l-77.9 182.45 134.275 58.425 13.325-30.75-98.4-42.025 17.425-41 92.25 39.975 13.325-30.75-92.25-39.975 21.525-49.2 102.5 44.075 12.3-30.75-138.375-60.475zM777.976 340.369l-95.325 120.95 22.55-151.7-39.975-17.425-121.975 162.975 37.925 16.4 80.975-113.775-20.5 140.425 44.075 18.45 86.1-113.775-26.65 139.4 36.9 16.4 34.85-201.925-38.95-16.4z" />
<glyph unicode="&#x25;" glyph-name="trending" horiz-adv-x="1171" d="M1171.576-20.432v-73.8h-1171.576v879.451h72.775v-805.651h1098.801zM1097.776 692.969v-248.050c0-8.2-3.075-14.35-10.25-17.425-8.2-3.075-14.35-2.050-20.5 4.1l-69.7 69.7-361.825-361.825c-4.1-4.1-8.2-6.15-13.325-6.15s-9.225 2.050-13.325 6.15l-133.25 133.25-237.8-238.825-109.675 110.7 335.175 334.15c3.075 4.1 7.175 6.15 12.3 6.15s9.225-2.050 13.325-6.15l133.25-133.25 265.475 265.475-68.675 69.7c-6.15 5.125-8.2 12.3-5.125 19.475 4.1 8.2 9.225 11.275 17.425 11.275h249.075c5.125 0 9.225-1.025 12.3-5.125 4.1-3.075 5.125-7.175 5.125-13.325z" />
<glyph unicode="&#x26;" glyph-name="angle-double-left" horiz-adv-x="586" d="M358.75 70.793q0-7.175-6.15-13.325l-28.7-28.7q-5.125-5.125-12.3-5.125t-13.325 5.125l-266.5 267.525q-6.15 5.125-6.15 12.3t6.15 13.325l266.5 266.5q5.125 6.15 13.325 6.15t12.3-6.15l28.7-28.7q6.15-5.125 6.15-13.325t-6.15-12.3l-224.475-225.5 224.475-224.475q6.15-6.15 6.15-13.325zM578.101 70.793q0-7.175-5.125-13.325l-28.7-28.7q-6.15-5.125-13.325-5.125t-13.325 5.125l-266.5 267.525q-6.15 5.125-6.15 12.3t6.15 13.325l266.5 266.5q6.15 6.15 13.325 6.15t13.325-6.15l28.7-28.7q5.125-5.125 5.125-13.325t-5.125-12.3l-225.5-225.5 225.5-224.475q5.125-6.15 5.125-13.325z" />
<glyph unicode="&#x27;" glyph-name="angle-double-right" horiz-adv-x="586" d="M340.3 308.594q0-7.175-5.125-12.3l-267.525-267.525q-5.125-5.125-12.3-5.125t-13.325 5.125l-28.7 28.7q-6.15 6.15-6.15 13.325t6.15 13.325l224.475 224.475-224.475 225.5q-6.15 5.125-6.15 12.3t6.15 13.325l28.7 28.7q5.125 6.15 13.325 6.15t12.3-6.15l267.525-266.5q5.125-5.125 5.125-13.325zM559.651 308.594q0-7.175-5.125-12.3l-266.5-267.525q-6.15-5.125-13.325-5.125t-13.325 5.125l-28.7 28.7q-5.125 6.15-5.125 13.325t5.125 13.325l224.475 224.475-224.475 225.5q-5.125 5.125-5.125 12.3t5.125 13.325l28.7 28.7q6.15 6.15 13.325 6.15t13.325-6.15l266.5-266.5q5.125-5.125 5.125-13.325z" />
<glyph unicode="&#x28;" glyph-name="angle-double-up" horiz-adv-x="658" d="M615.001 107.693q0-7.175-6.15-13.325l-28.7-28.7q-5.125-5.125-12.3-5.125t-13.325 5.125l-225.5 224.475-224.475-224.475q-5.125-5.125-13.325-5.125t-12.3 5.125l-28.7 28.7q-6.15 6.15-6.15 13.325t6.15 13.325l266.5 266.5q5.125 5.125 12.3 5.125t13.325-5.125l266.5-266.5q6.15-6.15 6.15-13.325zM615.001 327.044q0-7.175-6.15-13.325l-28.7-28.7q-5.125-5.125-12.3-5.125t-13.325 5.125l-225.5 225.5-224.475-225.5q-5.125-5.125-13.325-5.125t-12.3 5.125l-28.7 28.7q-6.15 6.15-6.15 13.325t6.15 13.325l266.5 266.5q5.125 6.15 12.3 6.15t13.325-6.15l266.5-266.5q6.15-6.15 6.15-13.325z" />
<glyph unicode="&#x29;" glyph-name="angle-double-down" horiz-adv-x="658" d="M615.001 363.944q0-7.175-6.15-13.325l-266.5-266.5q-5.125-6.15-13.325-6.15t-12.3 6.15l-266.5 266.5q-6.15 6.15-6.15 13.325t6.15 13.325l28.7 28.7q5.125 5.125 12.3 5.125t13.325-5.125l224.475-225.5 225.5 225.5q5.125 5.125 13.325 5.125t12.3-5.125l28.7-28.7q6.15-6.15 6.15-13.325zM615.001 583.294q0-7.175-6.15-13.325l-266.5-266.5q-5.125-5.125-13.325-5.125t-12.3 5.125l-266.5 266.5q-6.15 6.15-6.15 13.325t6.15 13.325l28.7 28.7q5.125 6.15 12.3 6.15t13.325-6.15l224.475-224.475 225.5 224.475q5.125 6.15 13.325 6.15t12.3-6.15l28.7-28.7q6.15-6.15 6.15-13.325z" />
<glyph unicode="&#xe800;" glyph-name="lightbulb" horiz-adv-x="903" d="M1.025 303.469q-2.050 12.3 7.175 22.55t22.55 11.275l92.25 16.4q14.35 2.050 26.65-5.125t13.325-20.5-7.175-23.575-24.6-13.325l-90.2-13.325q-14.35-2.050-25.625 5.125t-14.35 20.5zM3.075 560.744q-6.15 13.325 0 24.6t19.475 16.4 26.65-4.1l84.050-35.875q14.35-6.15 19.475-18.45t0-23.575-18.45-16.4-26.65 0l-84.050 39.975q-14.35 4.1-20.5 17.425zM167.075 772.919q2.050 13.325 14.35 21.525 10.25 5.125 22.55 2.050t21.525-16.4l50.225-77.9q7.175-12.3 5.125-26.65t-11.275-19.475-23.575-3.075-20.5 15.375l-52.275 77.9q-8.2 13.325-6.15 26.65zM225.5 525.894q17.425 39.975 50.225 67.65t76.875 42.025 96.35 14.35h4.1q52.275 0 96.35-14.35t76.875-42.025 51.25-67.65q44.075-106.6-15.375-232.675-22.55-44.075-48.175-93.275-14.35-26.65-25.625-75.85t-16.4-62.525q-4.1-12.3-16.4-14.35h-208.075q-12.3 2.050-18.45 14.35-29.725 113.775-39.975 138.375-25.625 49.2-48.175 93.275-59.45 134.275-15.375 232.675zM326.975-112.682q0 8.2 5.125 12.3t13.325 5.125h214.225q6.15 0 11.275-5.125t5.125-12.3v-35.875q0-8.2-5.125-13.325t-11.275-5.125h-214.225q-18.45 0-18.45 18.45v35.875zM326.975-42.982v35.875q0 18.45 18.45 18.45h214.225q6.15 0 11.275-5.125t5.125-13.325v-35.875q0-8.2-5.125-13.325t-11.275-4.1h-214.225q-8.2 0-13.325 4.1t-5.125 13.325zM423.325 729.869v92.25q0 16.4 8.2 25.625t21.525 10.25q12.3 0 21.525-10.25t9.225-25.625v-92.25q0-14.35-9.225-23.575t-21.525-10.25q-13.325 0-21.525 10.25t-8.2 23.575zM621.151 675.544q-1.025 14.35 6.15 26.65l50.225 77.9q10.25 12.3 22.55 16.4t23.575-2.050q10.25-8.2 12.3-21.525t-6.15-26.65l-50.225-77.9q-10.25-12.3-21.525-15.375t-23.575 3.075-13.325 19.475zM742.101 328.069q2.050 13.325 12.3 20.5t25.625 5.125l92.25-16.4q13.325-2.050 22.55-11.275t7.175-22.55q-2.050-14.35-13.325-20.5t-26.65-5.125l-92.25 13.325q-14.35 2.050-22.55 13.325t-5.125 23.575zM750.301 519.744q-4.1 12.3 1.025 23.575t18.45 18.45l86.1 35.875q12.3 8.2 24.6 4.1t19.475-16.4 0-24.6-20.5-17.425l-84.050-39.975q-13.325-4.1-26.65 0t-18.45 16.4z" />
<glyph unicode="&#xe801;" glyph-name="check" horiz-adv-x="684" d="M255.225-13.257q-34.85 0-57.4 28.7l-184.5 241.9q-16.4 24.6-12.3 53.3t26.65 47.15 52.275 14.35 48.175-28.7l120.95-157.85 303.4 485.85q16.4 24.6 44.075 30.75t54.325-8.2q24.6-16.4 30.75-44.075t-8.2-54.325l-358.75-574.001q-20.5-32.8-57.4-32.8z" />
<glyph unicode="&#xe802;" glyph-name="call" horiz-adv-x="805" d="M805.651 148.693q0-15.375-6.15-39.975t-12.3-38.95q-11.275-28.7-69.7-61.5-53.3-28.7-105.575-28.7-15.375 0-30.75 2.050t-32.8 7.175-26.65 8.2-31.775 11.275-28.7 10.25q-55.35 20.5-99.425 48.175-72.775 45.1-151.7 123t-123 151.7q-27.675 44.075-47.15 99.425-2.050 5.125-10.25 28.7t-12.3 31.775-8.2 26.65-7.175 32.8-2.050 29.725q0 53.3 29.725 106.6 31.775 58.425 60.475 69.7 14.35 6.15 38.95 12.3t39.975 6.15q8.2 0 12.3-2.050 10.25-3.075 30.75-43.050 6.15-11.275 16.4-31.775t20.5-35.875 17.425-30.75q2.050-2.050 10.25-14.35t12.3-20.5 4.1-16.4q0-11.275-16.4-27.675t-35.875-31.775-34.85-30.75-16.4-25.625q0-5.125 3.075-13.325t4.1-11.275 8.2-14.35 7.175-10.25q43.050-78.925 99.425-135.3t134.275-99.425q1.025 0 10.25-6.15t14.35-8.2 11.275-5.125 13.325-2.050q10.25 0 25.625 16.4t30.75 34.85 31.775 35.875 28.7 16.4q7.175 0 15.375-4.1t20.5-12.3 14.35-10.25q14.35-8.2 30.75-17.425t36.9-20.5 30.75-17.425q39.975-19.475 43.050-29.725 2.050-4.1 2.050-12.3z" />
<glyph unicode="&#xe803;" glyph-name="megaphone" d="M952.226 492.069q29.725 0 51.25-21.525t21.525-52.275-21.525-51.25-51.25-21.525v-219.35q0-29.725-22.55-51.25t-51.25-22.55q-238.825 198.85-464.325 217.3-32.8-10.25-52.275-36.9t-17.425-58.425 22.55-52.275q-11.275-19.475-13.325-37.925t4.1-32.8 19.475-31.775 26.65-28.7 35.875-28.7q-17.425-32.8-64.575-47.15t-96.35-7.175-74.825 31.775q-4.1 13.325-17.425 50.225t-18.45 54.325-12.3 51.25-9.225 57.4 2.050 56.375 12.3 63.55h-69.7q-36.9 0-64.575 26.65t-26.65 64.575v109.675q0 37.925 26.65 64.575t64.575 26.65h274.7q249.075 0 512.5 220.375 29.725 0 51.25-22.55t22.55-51.25v-219.35zM878.426 146.643v545.301q-225.5-172.2-438.7-195.775v-154.775q215.25-23.575 438.7-194.75z" />
<glyph unicode="&#xe804;" glyph-name="mail" d="M952.226-1.982v438.7q-18.45-20.5-39.975-36.9-152.725-117.875-243.95-193.725-28.7-24.6-47.15-37.925t-49.2-28.7-58.425-13.325h-2.050q-26.65 0-58.425 13.325t-49.2 28.7-47.15 37.925q-90.2 75.85-243.95 193.725-21.525 16.4-39.975 36.9v-438.7q0-7.175 6.15-13.325t12.3-5.125h842.551q7.175 0 12.3 5.125t6.15 13.325zM952.226 598.669v14.35t-1.025 7.175-1.025 7.175-3.075 5.125-5.125 4.1-8.2 2.050h-842.551q-7.175 0-12.3-6.15t-6.15-12.3q0-96.35 85.075-162.975 109.675-86.1 228.575-180.4 4.1-3.075 20.5-17.425t25.625-21.525 25.625-17.425 28.7-16.4 24.6-5.125h2.050q11.275 0 24.6 5.125t28.7 16.4 25.625 17.425 25.625 21.525 20.5 17.425q118.9 94.3 229.6 180.4 30.75 24.6 57.4 66.625t26.65 74.825zM1025.001 620.194v-622.176q0-37.925-26.65-64.575t-64.575-27.675h-842.551q-36.9 0-64.575 27.675t-26.65 64.575v622.176q0 37.925 26.65 64.575t64.575 26.65h842.551q37.925 0 64.575-26.65t26.65-64.575z" />
<glyph unicode="&#xe805;" glyph-name="star-half" horiz-adv-x="513" d="M475.6 839.544v-765.676l-256.25-135.3q-12.3-7.175-23.575-7.175t-17.425 9.225-6.15 19.475q0 4.1 1.025 12.3l49.2 285.975-208.075 201.925q-14.35 15.375-14.35 27.675 0 21.525 31.775 26.65l287 41 129.15 260.35q11.275 23.575 27.675 23.575z" />
<glyph unicode="&#xe806;" glyph-name="star" horiz-adv-x="951" d="M952.226 487.969q0-12.3-15.375-27.675l-207.050-201.925 49.2-285.975q0-4.1 0-12.3 0-11.275-6.15-19.475t-17.425-9.225q-10.25 0-22.55 7.175l-257.275 135.3-256.25-135.3q-12.3-7.175-23.575-7.175t-17.425 9.225-6.15 19.475q0 4.1 1.025 12.3l49.2 285.975-208.075 201.925q-14.35 15.375-14.35 27.675 0 21.525 31.775 26.65l287 41 129.15 260.35q11.275 23.575 27.675 23.575t28.7-23.575l128.125-260.35 287-41q32.8-5.125 32.8-26.65z" />
<glyph unicode="&#xe807;" glyph-name="star-empty" horiz-adv-x="951" d="M650.876 283.994l174.25 170.15-240.875 34.85-108.65 218.325-107.625-218.325-241.9-34.85 175.275-170.15-42.025-240.875 216.275 113.775 216.275-113.775zM952.226 487.969q0-12.3-15.375-27.675l-207.050-201.925 49.2-285.975q0-4.1 0-12.3 0-28.7-23.575-28.7-10.25 0-22.55 7.175l-257.275 135.3-256.25-135.3q-12.3-7.175-23.575-7.175t-17.425 9.225-6.15 19.475q0 4.1 1.025 12.3l49.2 285.975-208.075 201.925q-14.35 15.375-14.35 27.675 0 21.525 31.775 26.65l287 41 129.15 260.35q11.275 23.575 27.675 23.575t28.7-23.575l128.125-260.35 287-41q32.8-5.125 32.8-26.65z" />
<glyph unicode="&#xe808;" glyph-name="right-open-big" horiz-adv-x="476" d="M13.325-33.757l366.95 379.25-366.95 381.3q-26.65 26.65 0 49.2 26.65 26.65 49.2 0l401.8-403.85q24.6-26.65 0-51.25l-401.8-403.85q-22.55-26.65-49.2 0-26.65 22.55 0 49.2z" />
<glyph unicode="&#xe809;" glyph-name="right-thin" horiz-adv-x="1005" d="M760.551 89.243v166.050h-760.551v182.45h760.551v164l243.95-256.25z" />
<glyph unicode="&#xe80a;" glyph-name="up-open-big" horiz-adv-x="886" d="M824.101 119.993l-381.3 366.95-379.25-366.95q-26.65-22.55-51.25 0-24.6 24.6 0 51.25l405.9 399.75q26.65 26.65 49.2 0l405.9-399.75q24.6-26.65 0-51.25-26.65-22.55-49.2 0z" />
<glyph unicode="&#xe80b;" glyph-name="left-open-big" horiz-adv-x="476" d="M463.3-33.757q26.65-26.65 0-49.2-26.65-26.65-49.2 0l-401.8 403.85q-24.6 24.6 0 51.25l401.8 403.85q22.55 26.65 49.2 0 26.65-22.55 0-49.2l-366.95-381.3z" />
<glyph unicode="&#xe80c;" glyph-name="down-open-big" horiz-adv-x="888" d="M64.575 570.994l379.25-364.9 381.3 364.9q22.55 26.65 49.2 0 26.65-22.55 0-49.2l-405.9-401.8q-22.55-22.55-49.2 0l-405.9 401.8q-26.65 26.65 0 49.2 24.6 24.6 51.25 0z" />
<glyph unicode="&#xe80d;" glyph-name="hdd-black" d="M0 231.719l203.975 550.426h617.051l203.975-550.426-82-322.875h-861.001zM79.95 179.443l56.375-218.325h752.351l56.375 218.325h-865.101zM750.301 70.793q0 16.4 12.3 28.7t28.7 12.3 29.725-12.3 11.275-28.7-11.275-29.725-29.725-11.275-28.7 11.275-12.3 29.725z" />
<glyph unicode="&#xe80e;" glyph-name="left-thin" horiz-adv-x="1005" d="M246 89.243l-246 256.25 246 256.25v-164h758.501v-182.45h-758.501v-166.050z" />
<glyph unicode="&#xe80f;" glyph-name="down-thin" horiz-adv-x="513" d="M512.5 89.243l-256.25-246-256.25 246h166.050v758.501h180.4v-758.501h166.050z" />
<glyph unicode="&#xe810;" glyph-name="heart" d="M512.5-94.232q-14.35 0-25.625 10.25l-356.7 344.4q-5.125 5.125-15.375 15.375t-31.775 37.925-38.95 55.35-30.75 68.675-13.325 78.925q0 126.075 72.775 196.8t200.9 71.75q34.85 0 71.75-12.3t68.675-33.825 55.35-38.95 43.050-38.95q20.5 20.5 43.050 38.95t55.35 38.95 68.675 33.825 71.75 12.3q128.125 0 200.9-71.75t72.775-196.8q0-126.075-131.2-257.275l-355.675-343.375q-10.25-10.25-25.625-10.25z" />
<glyph unicode="&#xe811;" glyph-name="heart-empty" d="M952.226 516.669q0 47.15-12.3 82t-31.775 56.375-47.15 33.825-53.3 18.45-56.375 4.1-63.55-14.35-63.55-36.9-49.2-41-34.85-34.85q-10.25-13.325-27.675-13.325t-27.675 13.325q-14.35 15.375-34.85 34.85t-49.2 41-63.55 36.9-63.55 14.35-56.375-4.1-53.3-18.45-47.15-33.825-31.775-56.375-12.3-82q0-95.325 107.625-202.95l332.1-319.8 332.1 319.8q107.625 107.625 107.625 202.95zM1025.001 516.669q0-126.075-131.2-257.275l-355.675-343.375q-10.25-10.25-25.625-10.25t-25.625 10.25l-356.7 344.4q-5.125 5.125-15.375 15.375t-31.775 37.925-38.95 55.35-30.75 68.675-13.325 78.925q0 126.075 72.775 196.8t200.9 71.75q34.85 0 71.75-12.3t68.675-33.825 55.35-38.95 43.050-38.95q20.5 20.5 43.050 38.95t55.35 38.95 68.675 33.825 71.75 12.3q128.125 0 200.9-71.75t72.775-196.8z" />
<glyph unicode="&#xe812;" glyph-name="cancel-circled" horiz-adv-x="951" d="M476.625 803.669q188.6 0 322.875-134.275t134.275-323.9-134.275-322.875-322.875-135.3-323.9 135.3-134.275 322.875 134.275 323.9 323.9 134.275zM702.126 200.969l-144.525 145.55 144.525 144.525-80.975 80.975-145.55-144.525-144.525 144.525-80.975-80.975 144.525-144.525-144.525-145.55 80.975-80.975 144.525 144.525 145.55-144.525z" />
<glyph unicode="&#xe813;" glyph-name="cancel" horiz-adv-x="481" d="M463.3 185.593q18.45-18.45 18.45-44.075t-18.45-44.075q-18.45-16.4-44.075-16.4t-44.075 16.4l-135.3 155.8-135.3-155.8q-18.45-16.4-44.075-16.4t-44.075 16.4q-16.4 18.45-16.4 44.075t16.4 44.075l141.45 159.9-141.45 161.95q-16.4 18.45-16.4 44.075t16.4 44.075q18.45 16.4 44.075 16.4t44.075-16.4l135.3-155.8 135.3 155.8q18.45 16.4 44.075 16.4t44.075-16.4q18.45-18.45 18.45-44.075t-18.45-44.075l-141.45-161.95z" />
<glyph unicode="&#xe814;" glyph-name="down-dir" horiz-adv-x="586" d="M585.276 455.169q0-14.35-10.25-25.625l-256.25-256.25q-11.275-11.275-25.625-11.275t-25.625 11.275l-256.25 256.25q-11.275 11.275-11.275 25.625t11.275 25.625 25.625 11.275h512.5q14.35 0 25.625-11.275t10.25-25.625z" />
<glyph unicode="&#xe815;" glyph-name="up-dir" horiz-adv-x="586" d="M585.276 162.018q0-14.35-10.25-25.625t-25.625-10.25h-512.5q-15.375 0-25.625 10.25t-11.275 25.625 11.275 26.65l256.25 256.25q10.25 10.25 25.625 10.25t25.625-10.25l256.25-256.25q10.25-11.275 10.25-26.65z" />
<glyph unicode="&#xe816;" glyph-name="left-dir" horiz-adv-x="366" d="M365.925 601.744v-512.5q0-14.35-10.25-25.625t-26.65-11.275-25.625 11.275l-256.25 256.25q-10.25 11.275-10.25 25.625t10.25 25.625l256.25 256.25q11.275 11.275 25.625 11.275t26.65-11.275 10.25-25.625z" />
<glyph unicode="&#xe817;" glyph-name="right-dir" horiz-adv-x="366" d="M329.025 345.494q0-14.35-10.25-25.625l-256.25-256.25q-11.275-11.275-25.625-11.275t-25.625 11.275-11.275 25.625v512.5q0 15.375 11.275 25.625t25.625 11.275 25.625-11.275l256.25-256.25q10.25-10.25 10.25-25.625z" />
<glyph unicode="&#xe818;" glyph-name="face" d="M865.101 473.619c0 194.75-157.85 352.6-352.6 352.6s-352.6-157.85-352.6-352.6c0 0 0-1.025 0-1.025l1.025-8.2c-47.925-19.262-81.144-65.352-81.144-119.2 0-62.119 44.206-113.912 102.876-125.638l0.818-0.136c16.021-95.139 54.788-179.201 110.519-249.146l-0.844 1.096c51.699-65.248 130.937-106.728 219.863-106.728s168.163 41.481 219.418 106.148l0.444 0.581c54.52 68.915 92.947 152.991 108.217 244.895l0.433 3.155c59.487 11.862 103.694 63.655 103.694 125.775 0 53.849-33.219 99.939-80.283 118.894l-0.861 0.306 1.025 8.2c0 0 0 1.025 0 1.025zM111.725 345.494c0.238 36.882 21.164 68.822 51.745 84.822l0.531 0.253 14.35-170.15c1.025-2.050 1.025-4.1 1.025-6.15-39.478 12.251-67.65 48.445-67.65 91.219 0 0.002 0 0.004 0 0.006v0zM814.876 263.494c-9.236-103.775-48.291-196.974-108.428-272.671l0.803 1.046c-45.831-57.73-116.005-94.423-194.75-94.423s-148.919 36.693-194.359 93.913l-0.391 0.51c-59.334 74.651-98.389 167.85-107.484 269.672l-0.141 1.953-17.425 211.15c0 176.3 143.5 319.8 319.8 319.8s319.8-143.5 320.825-319.8zM884.576 413.144c16.953-17.351 27.411-41.109 27.411-67.311 0-42.49-27.505-78.557-65.681-91.366l-0.68-0.198c0 2.050 1.025 4.1 1.025 6.15l14.35 170.15c9.049-4.81 16.813-10.613 23.569-17.419l0.006-0.006zM961.451-38.882v144.525h-32.8v-128.125h-111.725v-32.8h128.125c9.058 0 16.4 7.342 16.4 16.4v0zM64.575-38.882c0-0.010 0-0.021 0-0.032 0-8.696 6.77-15.812 15.327-16.365l0.048-0.002h128.125v32.8h-111.725v128.125h-31.775zM64.575 729.869v-144.525h31.775v128.125h111.725v32.8h-128.125c-8.605-0.556-15.375-7.671-15.375-16.368 0-0.011 0-0.023 0-0.034v0.002zM961.451 729.869c0 9.058-7.342 16.4-16.4 16.4v0h-128.125v-32.8h111.725v-128.125h32.8zM336.2 410.069c-35.664 0-64.575-28.911-64.575-64.575s28.911-64.575 64.575-64.575c35.664 0 64.575 28.911 64.575 64.575v0c0 35.664-28.911 64.575-64.575 64.575v0zM336.2 313.719c-17.549 0-31.775 14.226-31.775 31.775s14.226 31.775 31.775 31.775c17.549 0 31.775-14.226 31.775-31.775v0c0-17.549-14.226-31.775-31.775-31.775v0zM688.801 410.069c-0.305 0.005-0.665 0.008-1.025 0.008-35.664 0-64.575-28.911-64.575-64.575s28.911-64.575 64.575-64.575c35.661 0 64.57 28.906 64.575 64.566v0c0 0.002 0 0.005 0 0.008 0 35.303-28.33 63.99-63.496 64.566l-0.054 0.001zM688.801 313.719c-17.549 0-31.775 14.226-31.775 31.775s14.226 31.775 31.775 31.775c17.549 0 31.775-14.226 31.775-31.775v0c0-17.549-14.226-31.775-31.775-31.775v0zM496.1 377.269h32.8v-208.075h-32.8zM435.625 121.018l-6.15-31.775c24.96-5.241 53.642-8.242 83.025-8.242s58.065 3.001 85.756 8.713l-2.731-0.47-6.15 31.775c-23.112-4.859-49.669-7.641-76.875-7.641s-53.764 2.782-79.402 8.078l2.526-0.436zM597.576 453.119l21.525-23.575c42.025 36.9 98.4 37.925 138.375 0l22.55 23.575c-26.65 24.6-58.425 36.9-92.25 36.9-34.97-1.026-66.521-14.873-90.285-36.978l0.085 0.078zM244.975 453.119l22.55-23.575c39.975 37.925 96.35 36.9 138.375 0l21.525 23.575c-23.679 22.028-55.23 35.874-89.998 36.895l-0.202 0.005c-33.825 0-65.6-12.3-92.25-36.9z" />
<glyph unicode="&#xe819;" glyph-name="plus-squared" horiz-adv-x="820" d="M717.501 755.494q43.050 0 72.775-29.725t29.725-72.775v-615.001q0-41-29.725-71.75t-72.775-30.75h-615.001q-41 0-71.75 30.75t-30.75 71.75v615.001q0 43.050 30.75 72.775t71.75 29.725h615.001zM666.251 294.244v102.5h-205v205h-102.5v-205h-205v-102.5h205v-205h102.5v205h205z" />
<glyph unicode="&#xe81a;" glyph-name="minus" horiz-adv-x="595" d="M563.751 396.744q30.75 0 30.75-51.25t-30.75-51.25h-533.001q-30.75 0-30.75 51.25t30.75 51.25h533.001z" />
<glyph unicode="&#xe81b;" glyph-name="plus" horiz-adv-x="595" d="M563.751 396.744q30.75 0 30.75-51.25t-30.75-51.25h-215.25v-215.25q0-30.75-51.25-30.75t-51.25 30.75v215.25h-215.25q-30.75 0-30.75 51.25t30.75 51.25h215.25v215.25q0 30.75 51.25 30.75t51.25-30.75v-215.25h215.25z" />
<glyph unicode="&#xe81c;" glyph-name="sd-card" d="M697.001 857.994h-589.376v-271.625h43.050v-240.875h-43.050v-512.5h809.751v804.626l-220.375 220.375zM205 679.644h-54.325v134.275h54.325v-134.275zM278.8 679.644h-54.325v134.275h54.325v-134.275zM352.6 679.644h-53.3v134.275h53.3v-134.275zM427.425 679.644h-54.325v134.275h54.325v-134.275zM501.225 679.644h-54.325v134.275h54.325v-134.275zM575.026 679.644h-53.3v134.275h53.3v-134.275zM649.851 679.644h-54.325v134.275h54.325v-134.275z" />
<glyph unicode="&#xe81d;" glyph-name="minus-squared" horiz-adv-x="820" d="M717.501 755.494q43.050 0 72.775-29.725t29.725-72.775v-615.001q0-41-29.725-71.75t-72.775-30.75h-615.001q-41 0-71.75 30.75t-30.75 71.75v615.001q0 43.050 30.75 72.775t71.75 29.725h615.001zM666.251 294.244v102.5h-512.5v-102.5h512.5z" />
<glyph unicode="&#xe81e;" glyph-name="help-circled" horiz-adv-x="943" d="M465.35 816.994q194.75 2.050 334.15-133.25t143.5-330.050q2.050-194.75-134.275-335.175t-331.075-144.525q-194.75-2.050-335.175 134.275t-142.475 331.075q-4.1 194.75 133.25 335.175t332.1 142.475zM463.3 58.493q30.75 0 50.225 19.475t19.475 48.175q2.050 30.75-17.425 50.225t-50.225 19.475h-2.050q-28.7 0-48.175-18.45t-21.525-47.15q0-30.75 19.475-50.225t48.175-21.525h2.050zM633.451 394.694q26.65 34.85 26.65 79.95 0 79.95-55.35 118.9-53.3 38.95-137.35 38.95-65.6 0-106.6-26.65-69.7-43.050-73.8-149.65v-4.1h112.75v4.1q0 26.65 16.4 55.35 16.4 24.6 55.35 24.6 41 0 53.3-20.5 16.4-20.5 16.4-45.1 0-18.45-16.4-41-8.2-12.3-20.5-20.5l-6.15-4.1q-6.15-4.1-16.4-11.275t-20.5-15.375-21.525-17.425-17.425-17.425q-14.35-20.5-18.45-79.95v-8.2h110.7v4.1q0 12.3 4.1 28.7 6.15 20.5 28.7 36.9l28.7 18.45q47.15 34.85 57.4 51.25z" />
<glyph unicode="&#xe81f;" glyph-name="help" horiz-adv-x="595" d="M506.35 745.244q88.15-63.55 88.15-188.6 0-65.6-43.050-127.1-12.3-20.5-90.2-82l-47.15-30.75q-41-34.85-49.2-61.5-6.15-16.4-8.2-45.1 0-14.35-16.4-14.35h-131.2q-16.4 0-16.4 12.3 4.1 100.45 28.7 127.1 16.4 22.55 49.2 49.2t57.4 43.050l24.6 14.35q22.55 16.4 34.85 34.85 28.7 45.1 28.7 71.75 0 41-26.65 79.95-28.7 36.9-94.3 36.9-69.7 0-96.35-45.1-28.7-43.050-28.7-94.3h-170.15q6.15 166.050 116.85 237.8 71.75 43.050 170.15 43.050 133.25 0 219.35-61.5zM284.95 93.343q45.1 0 74.825-30.75t27.675-75.85q-2.050-47.15-32.8-74.825t-75.85-25.625q-45.1 0-74.825 29.725t-27.675 76.875 32.8 74.825 75.85 25.625z" />
<glyph unicode="&#xe820;" glyph-name="chat" d="M297.25 232.744h358.75q2.050 0 6.15 2.050h4.1v-94.3q0-41-29.725-71.75t-72.775-30.75h-256.25l-153.75-153.75v153.75h-51.25q-41 0-71.75 30.75t-30.75 71.75v307.5q0 43.050 30.75 72.775t71.75 29.725h194.75v-317.75zM922.501 806.744q43.050 0 72.775-29.725t29.725-72.775v-307.5q0-41-29.725-71.75t-72.775-30.75h-51.25v-153.75l-153.75 153.75h-358.75v410q0 43.050 30.75 72.775t71.75 29.725h461.25z" />
<glyph unicode="&#xe821;" glyph-name="movie" horiz-adv-x="1005" d="M1004.501 601.744h-102.5v-102.5h102.5v-102.5h-102.5v-102.5h102.5v-102.5h-102.5v-102.5h102.5v-61.5q0-16.4-12.3-28.7t-28.7-12.3h-922.501q-16.4 0-28.7 12.3t-12.3 28.7v61.5h102.5v102.5h-102.5v102.5h102.5v102.5h-102.5v102.5h102.5v102.5h-102.5v61.5q0 18.45 12.3 29.725t28.7 11.275h922.501q16.4 0 28.7-11.275t12.3-29.725v-61.5zM389.5 191.743l256.25 153.75-256.25 153.75v-307.5z" />
<glyph unicode="&#xe822;" glyph-name="export" d="M768.751 48.243v57.4l102.5 84.050v-192.7q0-20.5-15.375-35.875t-35.875-15.375h-768.751q-20.5 0-35.875 15.375t-15.375 35.875v563.751q0 22.55 14.35 36.9t36.9 14.35h295.2q-32.8-24.6-60.475-50.225t-39.975-39.975l-10.25-12.3h-133.25v-461.25h666.251zM684.701 404.944q-170.15 0-248.050-42.025t-164-185.525q0 8.2 1.025 22.55t9.225 57.4 22.55 80.975 45.1 85.075 71.75 80.975 109.675 57.4 152.725 23.575v159.9l340.3-256.25-340.3-266.5v182.45z" />
<glyph unicode="&#xe823;" glyph-name="reply" horiz-adv-x="923" d="M922.501-3.007q-88.15 155.8-213.2 201.925t-338.25 46.125v-223.45l-371.050 342.35 371.050 330.050v-196.8q92.25 0 172.2-27.675t134.275-71.75 98.4-97.375 70.725-106.6 45.1-97.375 24.6-70.725z" />
<glyph unicode="&#xe824;" glyph-name="reply-all" d="M371.050 556.644l-217.3-192.7 217.3-200.9v-141.45l-371.050 342.35 371.050 330.050v-137.35zM627.301 497.194q106.6 0 186.55-51.25t117.875-125.050 61.5-147.6 27.675-125.050l4.1-51.25q-88.15 157.85-172.2 202.95t-225.5 45.1v-223.45l-371.050 342.35 371.050 330.050v-196.8z" />
<glyph unicode="&#xe825;" glyph-name="quote" horiz-adv-x="781" d="M149.65 683.744q149.65 0 188.6-149.65 38.95-143.5-41-309.55-82-172.2-229.6-209.1-32.8-8.2-67.65-8.2v71.75q114.8 0 186.55 110.7 55.35 88.15 26.65 149.65-16.4 36.9-63.55 36.9-61.5 0-105.575 45.1t-44.075 108.65 44.075 108.65 105.575 45.1zM580.151 683.744q149.65 0 188.6-149.65 38.95-143.5-41-309.55-82-172.2-229.6-209.1-32.8-8.2-67.65-8.2v71.75q114.8 0 186.55 110.7 55.35 88.15 26.65 149.65-16.4 36.9-63.55 36.9-61.5 0-105.575 45.1t-44.075 108.65 44.075 108.65 105.575 45.1z" />
<glyph unicode="&#xe826;" glyph-name="thumbs-up" horiz-adv-x="820" d="M596.551 478.744q2.050-6.15 59.45-13.325t110.7-24.6 53.3-48.175q0-73.8-62.525-291.1t-109.675-217.3q-147.6 0-295.2 43.050t-147.6 90.2v350.55q0 14.35 15.375 34.85t47.15 46.125 54.325 42.025 63.55 44.075 47.15 31.775q51.25 34.85 106.6 102.5t87.125 106.6 42.025 26.65q49.2-77.9 29.725-140.425t-60.475-121.975-41-61.5zM153.75 474.644q14.35 0 0-14.35-51.25-51.25-51.25-106.6v-325.95q0-51.25 53.3-106.6 10.25-10.25-2.050-10.25-26.65 0-56.375 8.2t-63.55 46.125-33.825 101.475v248.050q0 63.55 33.825 102.5t64.575 48.175 55.35 9.225z" />
<glyph unicode="&#xe827;" glyph-name="eye" d="M512.5 632.494q94.3 0 181.425-25.625t144.525-63.55 101.475-78.925 64.575-72.775 20.5-46.125-20.5-45.1-64.575-72.775-101.475-79.95-144.525-63.55-181.425-25.625-181.425 25.625-144.525 63.55-101.475 79.95-64.575 72.775-20.5 45.1 20.5 46.125 64.575 72.775 101.475 78.925 144.525 63.55 181.425 25.625zM512.5 126.143q94.3 0 160.925 64.575t66.625 154.775q0 92.25-66.625 156.825t-160.925 64.575-160.925-64.575-66.625-156.825q0-90.2 66.625-154.775t160.925-64.575zM512.5 345.494q8.2-8.2 37.925-2.050t51.25 11.275 25.625-9.225q0-45.1-33.825-76.875t-80.975-31.775-79.95 31.775-32.8 76.875q0 47.15 32.8 78.925t79.95 31.775q14.35 0 10.25-23.575t-12.3-48.175 2.050-38.95z" />
<glyph unicode="&#xe828;" glyph-name="calendar" horiz-adv-x="923" d="M820.001 704.244q43.050 0 72.775-29.725t29.725-72.775v-615.001q0-41-29.725-71.75t-72.775-30.75h-717.501q-41 0-71.75 30.75t-30.75 71.75v615.001q0 43.050 30.75 72.775t71.75 29.725h47.15v-102.5h164v102.5h297.25v-102.5h164v102.5h45.1zM820.001-13.257v410h-717.501v-410h717.501zM266.5 806.744v-174.25h-71.75v174.25h71.75zM727.751 806.744v-174.25h-71.75v174.25h71.75z" />
<glyph unicode="&#xe829;" glyph-name="arrow-combo" horiz-adv-x="471" d="M235.75 857.994l235.75-373.1h-471.5zM235.75-167.007l-235.75 375.15h471.5z" />
<glyph unicode="&#xe82a;" glyph-name="ccw" horiz-adv-x="964" d="M545.301 741.144q174.25 0 296.225-123t121.975-297.25-121.975-297.25-296.225-123q-145.55 0-258.3 90.2l71.75 75.85q86.1-61.5 186.55-61.5 129.15 0 221.4 92.25t92.25 223.45-92.25 223.45-221.4 92.25q-127.1 0-219.35-89.175t-94.3-216.275h145.55l-188.6-209.1-188.6 209.1h127.1q2.050 170.15 125.050 290.075t293.15 119.925z" />
<glyph unicode="&#xe82b;" glyph-name="basket" horiz-adv-x="923" d="M153.75-13.257q0 41 30.75 71.75t71.75 30.75q43.050 0 72.775-30.75t29.725-71.75q0-43.050-29.725-72.775t-72.775-29.725q-41 0-71.75 29.725t-30.75 72.775zM666.251-13.257q0 41 30.75 71.75t71.75 30.75q43.050 0 72.775-30.75t29.725-71.75q0-43.050-29.725-72.775t-72.775-29.725q-41 0-71.75 29.725t-30.75 72.775zM336.2 228.644q-36.9-10.25-34.85-23.575t45.1-13.325h576.051v-77.9q0-20.5-20.5-20.5h-670.351q-20.5 0-20.5 20.5v77.9l-10.25 47.15-100.45 465.35h-100.45v82q0 20.5 20.5 20.5h159.9q20.5 0 20.5-20.5v-88.15h721.601v-280.85q0-22.55-18.45-26.65z" />
<glyph unicode="&#xe82c;" glyph-name="apple" horiz-adv-x="793" d="M63.55 464.394v0c41 75.85 114.8 123 192.7 124.025h2.050c33.825 0 65.6-13.325 94.3-24.6 20.5-9.225 38.95-16.4 52.275-16.4s30.75 7.175 51.25 16.4c30.75 12.3 68.675 27.675 107.625 27.675h15.375c32.8-2.050 115.825-14.35 170.15-98.4l1.025-6.15-3.075-5.125-1.025-1.025c-15.375-10.25-94.3-66.625-93.275-174.25 1.025-133.25 104.55-181.425 116.85-186.55v0c4.1-2.050 5.125-6.15 4.1-10.25v-1.025c-7.175-21.525-25.625-77.9-63.55-137.35-35.875-55.35-76.875-118.9-144.525-120.95-30.75 0-52.275 9.225-72.775 19.475-20.5 9.225-42.025 19.475-75.85 19.475-35.875 0-58.425-10.25-79.95-20.5-19.475-9.225-39.975-18.45-67.65-19.475h-3.075c-59.45 0-102.5 59.45-145.55 125.050-86.1 131.2-135.3 347.475-57.4 489.95zM579.126 822.119v0c3.075 1.025 7.175-3.075 7.175-7.175 6.15-52.275-12.3-111.725-48.175-157.85-34.85-44.075-84.050-71.75-131.2-71.75l-9.225 1.025c-4.1 0-6.15 3.075-7.175 6.15-7.175 60.475 20.5 118.9 50.225 154.775 33.825 42.025 90.2 72.775 138.375 74.825z" />
<glyph unicode="&#xe82d;" glyph-name="doc" horiz-adv-x="726" d="M454.075 857.994h-362.85c-50.225 0-91.225-46.125-91.225-102.5v-820.001c0-56.375 39.975-102.5 90.2-102.5h545.301c50.225 0 90.2 46.125 90.2 102.5v615.001l-271.625 307.5zM544.276 37.993h-362.85v102.5h362.85v-102.5zM544.276 242.994h-362.85v102.5h362.85v-102.5zM407.95 499.244v281.875l250.1-281.875h-250.1z" />
<glyph unicode="&#xe82e;" glyph-name="save" horiz-adv-x="889" d="M261.375 342.419c143.5 0 260.35 114.8 260.35 257.275s-116.85 258.3-260.35 258.3c-144.525 0-261.375-115.825-261.375-258.3s116.85-257.275 261.375-257.275zM170.15 498.219c2.050 8.2 4.1 16.4 7.175 25.625s6.15 10.25 14.35 6.15c16.4-8.2 32.8-12.3 49.2-15.375 11.275-1.025 22.55 0 32.8 5.125 19.475 8.2 22.55 29.725 6.15 43.050-6.15 5.125-12.3 8.2-18.45 11.275-17.425 7.175-34.85 12.3-50.225 21.525-25.625 15.375-42.025 36.9-39.975 67.65 2.050 34.85 21.525 56.375 54.325 68.675 13.325 5.125 13.325 4.1 13.325 18.45v14.35c0 10.25 2.050 11.275 12.3 12.3h10.25c22.55 0 22.55 0 22.55-22.55 0-15.375 0-15.375 15.375-17.425 12.3-2.050 23.575-6.15 34.85-10.25 6.15-3.075 8.2-7.175 7.175-14.35-3.075-9.225-6.15-18.45-9.225-28.7-3.075-8.2-5.125-10.25-14.35-6.15-17.425 9.225-35.875 12.3-55.35 11.275-5.125 0-10.25-1.025-14.35-3.075-16.4-7.175-19.475-25.625-5.125-36.9 7.175-5.125 15.375-9.225 23.575-13.325 14.35-5.125 29.725-11.275 44.075-19.475 45.1-24.6 56.375-79.95 25.625-117.875-12.3-13.325-26.65-22.55-44.075-27.675-7.175-2.050-11.275-5.125-10.25-13.325 0-7.175 0-15.375 0-22.55s-4.1-10.25-10.25-11.275c-8.2 0-17.425 0-25.625 0-7.175 1.025-10.25 4.1-10.25 11.275 0 6.15 0 11.275 0 17.425-1.025 11.275-1.025 12.3-13.325 14.35-15.375 2.050-29.725 6.15-44.075 12.3-10.25 5.125-11.275 8.2-8.2 19.475zM846.651 319.869h-30.75c-19.475 61.5-59.45 115.825-111.725 156.825 0 2.050 0 4.1-1.025 6.15-11.275 38.95 3.075 72.775 18.45 98.4 11.275 17.425-3.075 39.975-23.575 36.9-47.15-5.125-78.925-22.55-100.45-41-15.375-13.325-26.65-30.75-30.75-50.225-33.825-136.325-157.85-237.8-305.45-237.8-72.775 0-138.375 23.575-191.675 64.575-18.45-39.975-27.675-83.025-27.675-128.125 0-23.575 3.075-47.15 8.2-70.725 0 0 0 0 0-1.025 6.15-23.575 15.375-46.125 26.65-67.65 14.35-31.775 35.875-69.7 65.6-99.425 43.050-44.075 50.225-98.4 52.275-121.975v-11.275c0-11.275 10.25-20.5 21.525-20.5h137.35c12.3 0 22.55 10.25 22.55 22.55v32.8c19.475-2.050 39.975-4.1 60.475-4.1 16.4 0 31.775 1.025 47.15 3.075v-31.775c0-12.3 10.25-22.55 22.55-22.55h137.35c12.3 0 22.55 10.25 22.55 22.55v32.8c0 11.275 4.1 55.35 46.125 93.275l5.125 4.1 1.025 1.025c47.15 41 82 93.275 99.425 150.675h28.7c23.575 0 42.025 18.45 42.025 41v100.45c-1.025 23.575-19.475 41-42.025 41zM675.476 312.694c-18.45 0-33.825 15.375-33.825 33.825s15.375 33.825 33.825 33.825c18.45 0 33.825-15.375 33.825-33.825s-15.375-33.825-33.825-33.825z" />
<glyph unicode="&#xe82f;" glyph-name="ffriend" horiz-adv-x="793" d="M792.326 857.994l-161.95-821.026c-37.925-123-137.35-203.975-248.050-203.975h-382.325l151.7 769.776 6.15 26.65c1.025 3.075 1.025 6.15 2.050 9.225 36.9 131.2 141.45 219.35 259.325 219.35h373.1zM214.225 509.494l-78.925-418.2 5.125 1.025c24.6 0 47.15 9.225 68.675 29.725 20.5 20.5 33.825 45.1 38.95 73.8l20.5 106.6h169.125c24.6 0 48.175 10.25 69.7 29.725 20.5 20.5 33.825 45.1 39.975 73.8l1.025 5.125h-259.325l16.4 84.050h244.975c24.6 0 47.15 10.25 68.675 29.725 20.5 20.5 33.825 46.125 39.975 74.825l1.025 5.125h-338.25c-24.6 0-48.175-10.25-68.675-30.75-21.525-20.5-34.85-45.1-38.95-64.575z" />
<glyph unicode="&#xe830;" glyph-name="gift" d="M632.426 315.769v-482.775h240.875c49.2 0 91.225 39.975 91.225 90.2v392.575h-332.1zM60.475 315.769v-392.575c0-50.225 39.975-90.2 90.2-90.2h241.9v482.775h-332.1zM934.801 618.144h-123c19.475 24.6 30.75 55.35 30.75 90.2 0 82-66.625 149.65-149.65 149.65-104.55 0-135.3-75.85-180.4-189.625-45.1 113.775-74.825 189.625-180.4 189.625-82 0-149.65-67.65-149.65-149.65 0-34.85 11.275-65.6 30.75-90.2h-123c-50.225 0-90.2-41-90.2-90.2v-62.525c0-49.2 39.975-90.2 90.2-90.2h302.375v242.925h-60.475c-49.2 0-90.2 39.975-90.2 90.2 0 49.2 41 89.175 90.2 89.175 61.5 0 78.925-36.9 125.050-152.725 3.075-8.2 7.175-18.45 11.275-26.65h-16.4v-785.151h120.95v785.151h-16.4c4.1 8.2 8.2 18.45 11.275 26.65 46.125 115.825 63.55 152.725 125.050 152.725 49.2 0 90.2-39.975 90.2-89.175 0-50.225-41-90.2-90.2-90.2h-60.475v-242.925h302.375c50.225 0 90.2 41 90.2 90.2v62.525c0 49.2-39.975 90.2-90.2 90.2z" />
<glyph unicode="&#xe831;" glyph-name="game" d="M985.026 857.994h-29.725c-66.625 0-120.95-54.325-120.95-119.925 0-32.8-26.65-60.475-59.45-60.475s-60.475 27.675-60.475 60.475c0 65.6-53.3 119.925-119.925 119.925s-119.925-54.325-119.925-119.925v-119.925h-29.725c-17.425 0-30.75-13.325-30.75-30.75v-24.6c63.55-4.1 116.85-4.1 180.4 0v24.6c0 17.425-13.325 30.75-29.725 30.75h-30.75v119.925c0 32.8 27.675 59.45 60.475 59.45s60.475-26.65 60.475-59.45c0-66.625 53.3-119.925 119.925-119.925s119.925 53.3 119.925 119.925c0 32.8 26.65 59.45 60.475 59.45h29.725c16.4 0 29.725 14.35 29.725 30.75s-13.325 29.725-29.725 29.725zM663.176 135.368c-32.8 0-59.45-26.65-59.45-60.475 0-32.8 26.65-59.45 59.45-59.45s60.475 26.65 60.475 59.45c0 33.825-27.675 60.475-60.475 60.475zM1023.976 131.268c-5.125 131.2-31.775 268.55-55.35 332.1 0 0-2.050 6.15-2.050 6.15-22.55 57.4-88.15 87.125-149.65 67.65v0l-2.050-1.025c-164-50.225-453.050-48.175-609.876 0-1.025 0-1.025 0-2.050 0v0c-59.45 18.45-123-11.275-144.525-66.625l-2.050-6.15c-23.575-63.55-50.225-200.9-55.35-332.1-7.175-169.125 24.6-267.525 93.275-293.15 58.425-21.525 133.25 20.5 226.525 125.050-46.125 16.4-78.925 60.475-78.925 111.725 0 66.625 54.325 120.95 119.925 120.95 66.625 0 120.95-54.325 120.95-120.95v-1.025c33.825 5.125 26.65 5.125 60.475 0-1.025 68.675 54.325 121.975 119.925 121.975s119.925-54.325 119.925-120.95c0-51.25-32.8-95.325-78.925-111.725 38.95-44.075 73.8-75.85 106.6-97.375 31.775-22.55 61.5-32.8 88.15-32.8 11.275 0 21.525 2.050 31.775 5.125 68.675 25.625 100.45 124.025 93.275 293.15zM271.625 255.294h-28.7v-29.725c0-16.4-14.35-29.725-30.75-29.725s-29.725 13.325-29.725 29.725v29.725h-30.75c-16.4 0-29.725 13.325-29.725 29.725 0 17.425 13.325 30.75 29.725 30.75h30.75v29.725c0 16.4 13.325 29.725 29.725 29.725s30.75-13.325 30.75-29.725v-29.725h28.7c17.425 0 30.75-13.325 30.75-30.75 0-16.4-13.325-29.725-30.75-29.725zM453.050 255.294h-60.475c-16.4 0-30.75 13.325-30.75 29.725 0 17.425 14.35 30.75 30.75 30.75h60.475c16.4 0 29.725-13.325 29.725-30.75 0-16.4-13.325-29.725-29.725-29.725zM812.826 375.219c16.4 0 30.75-13.325 30.75-29.725s-14.35-29.725-30.75-29.725c-16.4 0-29.725 13.325-29.725 29.725s13.325 29.725 29.725 29.725zM632.426 255.294h-59.45c-16.4 0-29.725 13.325-29.725 29.725 0 17.425 13.325 30.75 29.725 30.75h59.45c17.425 0 30.75-13.325 30.75-30.75 0-16.4-13.325-29.725-30.75-29.725zM753.376 255.294c-17.425 0-30.75 13.325-30.75 29.725 0 17.425 13.325 30.75 30.75 30.75 16.4 0 29.725-13.325 29.725-30.75 0-16.4-13.325-29.725-29.725-29.725zM812.826 195.844c-16.4 0-29.725 13.325-29.725 29.725s13.325 29.725 29.725 29.725c16.4 0 30.75-13.325 30.75-29.725s-14.35-29.725-30.75-29.725zM873.301 255.294c-16.4 0-29.725 13.325-29.725 29.725 0 17.425 13.325 30.75 29.725 30.75s29.725-13.325 29.725-30.75c0-16.4-13.325-29.725-29.725-29.725zM362.85 135.368c-33.825 0-60.475-26.65-60.475-60.475 0-32.8 26.65-59.45 60.475-59.45 32.8 0 60.475 26.65 60.475 59.45 0 33.825-27.675 60.475-60.475 60.475z" />
<glyph unicode="&#xe832;" glyph-name="laptop" horiz-adv-x="1474" d="M1227.951-38.882c67.65 0 123 57.4 123 128.125v640.626c0 70.725-55.35 128.125-123 128.125h-981.951c-67.65 0-123-57.4-123-128.125v-640.626c0-70.725 55.35-128.125 123-128.125h-246v-128.125h1473.951v128.125h-246zM246 729.869h981.951v-640.626h-981.951v640.626z" />
<glyph unicode="&#xe833;" glyph-name="machine" horiz-adv-x="974" d="M877.401 660.169c18.45 0 34.85-6.15 49.2-16.4l-31.775 149.65c-8.2 39.975-35.875 64.575-72.775 64.575h-654.976c-33.825 0-62.525-26.65-70.725-64.575l-29.725-139.4c9.225 4.1 19.475 6.15 30.75 6.15h780.026zM774.901 810.844c27.675 0 50.225-23.575 50.225-51.25 0-28.7-22.55-52.275-50.225-52.275s-49.2 23.575-49.2 52.275c0 27.675 21.525 51.25 49.2 51.25zM619.101 810.844c27.675 0 50.225-23.575 50.225-51.25 0-28.7-22.55-52.275-50.225-52.275s-50.225 23.575-50.225 52.275c0 27.675 22.55 51.25 50.225 51.25zM426.4 803.669h86.1v-35.875h-86.1v35.875zM426.4 731.919h86.1v-35.875h-86.1v35.875zM97.375-167.007c-28.7 0-52.275 24.6-52.275 54.325v682.651c0 12.3 4.1 23.575 10.25 32.8 1.025 2.050 3.075 3.075 4.1 5.125 3.075 3.075 5.125 5.125 8.2 7.175 4.1 3.075 8.2 4.1 12.3 6.15 1.025-8.2 3.075-16.4 6.15-24.6 4.1-10.25 9.225-19.475 17.425-27.675 1.025-2.050 2.050-3.075 3.075-4.1 17.425-18.45 39.975-30.75 62.525-30.75h670.351c26.65 0 46.125 15.375 58.425 36.9 0 1.025 1.025 3.075 2.050 5.125 4.1 7.175 6.15 15.375 8.2 23.575 1.025 3.075 2.050 7.175 2.050 11.275 2.050-1.025 4.1-3.075 5.125-5.125 3.075-3.075 5.125-6.15 7.175-10.25 1.025-2.050 2.050-3.075 3.075-5.125 2.050-6.15 3.075-13.325 3.075-20.5v-682.651c0-29.725-22.55-54.325-51.25-54.325h-780.026zM489.95 458.244c-148.625 0-268.55-125.050-268.55-278.8s119.925-278.8 268.55-278.8c147.6 0 268.55 125.050 268.55 278.8s-120.95 278.8-268.55 278.8zM169.125 569.969c-24.6 0-52.275 28.7-54.325 54.325h761.576c0-20.5-9.225-46.125-27.675-52.275-3.075-1.025-6.15-2.050-9.225-2.050h-670.351zM489.95-46.057c-119.925 0-217.3 101.475-217.3 225.5s97.375 224.475 217.3 224.475c118.9 0 216.275-100.45 216.275-224.475s-97.375-225.5-216.275-225.5zM594.501 298.344c-14.35 0-26.65-12.3-26.65-27.675s12.3-27.675 26.65-27.675c14.35 0 26.65 12.3 26.65 27.675s-12.3 27.675-26.65 27.675zM507.375 351.644c-14.35 0-25.625-12.3-25.625-26.65 0-15.375 11.275-27.675 25.625-27.675 15.375 0 26.65 12.3 26.65 27.675 0 14.35-11.275 26.65-26.65 26.65zM330.050 205.069c-1.025-8.2-2.050-17.425-2.050-25.625 0-93.275 72.775-168.1 161.95-168.1s160.925 74.825 160.925 168.1c0 16.4-2.050 32.8-6.15 49.2-9.225-19.475-30.75-44.075-76.875-43.050-9.225 0-16.4 1.025-23.575 2.050 10.25 6.15 17.425 17.425 17.425 30.75 0 19.475-15.375 35.875-34.85 35.875s-34.85-16.4-34.85-35.875c0-2.050 1.025-3.075 1.025-5.125-16.4 13.325-32.8 24.6-65.6 25.625-45.1 0-78.925-20.5-97.375-33.825z" />
<glyph unicode="&#xe834;" glyph-name="renew" horiz-adv-x="1076" d="M884.576 707.319c-91.225 96.35-216.275 150.675-346.45 150.675s-255.225-54.325-347.475-149.65c-92.25-96.35-143.5-226.525-143.5-362.85s51.25-266.5 143.5-362.85c92.25-95.325 217.3-149.65 347.475-149.65 228.575 0 420.25 162.975 474.575 384.375h-128.125c-51.25-153.75-190.65-256.25-346.45-256.25-203.975 0-369 172.2-369 384.375s165.025 384.375 369 384.375c101.475 0 192.7-44.075 259.325-113.775l-197.825-206.025h429.475v447.925l-144.525-150.675z" />
<glyph unicode="&#xe835;" glyph-name="internet" d="M529.926 362.919h212.175c-2.050 76.875-18.45 151.7-47.15 221.4-53.3-15.375-108.65-23.575-165.025-25.625v-195.775zM714.426 627.369c51.25 18.45 101.475 43.050 147.6 74.825l11.275 8.2c-85.075 84.050-197.825 138.375-323.9 147.6l-9.225-7.175c74.825-62.525 133.25-138.375 174.25-223.45zM529.926 812.894v-218.325c51.25 1.025 101.475 9.225 150.675 22.55-35.875 73.8-87.125 140.425-150.675 195.775zM734.926 110.768c55.35-19.475 107.625-47.15 156.825-82l15.375-11.275c70.725 85.075 113.775 192.7 117.875 310.575h-248.050c-2.050-75.85-16.4-148.625-42.025-217.3zM162.975 702.194c46.125-31.775 96.35-56.375 147.6-74.825 41 85.075 99.425 160.925 174.25 223.45l-9.225 7.175c-126.075-9.225-239.85-63.55-323.9-147.6l11.275-8.2zM495.075 812.894c-63.55-55.35-113.775-121.975-149.65-195.775 48.175-13.325 98.4-21.525 149.65-22.55v218.325zM248.050 328.069h-248.050c4.1-117.875 47.15-225.5 117.875-310.575l15.375 11.275c49.2 34.85 101.475 62.525 156.825 82-25.625 68.675-39.975 141.45-42.025 217.3zM296.225 595.594c-53.3 18.45-104.55 44.075-152.725 76.875l-16.4 11.275c-75.85-86.1-123-197.825-127.1-320.825h248.050c2.050 80.975 18.45 159.9 48.175 232.675zM282.9 362.919h212.175v195.775c-56.375 2.050-111.725 10.25-165.025 25.625-28.7-69.7-45.1-144.525-47.15-221.4zM482.775-158.807c-77.9 65.6-138.375 146.575-178.35 236.775-53.3-18.45-103.525-45.1-150.675-77.9l-12.3-9.225c85.075-89.175 199.875-147.6 329.025-157.85l12.3 8.2zM495.075 149.718v178.35h-212.175c2.050-71.75 16.4-140.425 41-206.025 55.35 16.4 112.75 25.625 171.175 27.675zM871.251 0.068c-47.15 33.825-97.375 59.45-149.65 77.9-41-90.2-101.475-171.175-179.375-236.775l12.3-8.2c129.15 10.25 244.975 68.675 329.025 157.85l-12.3 9.225zM882.526 672.469c-48.175-32.8-99.425-58.425-153.75-76.875 29.725-72.775 46.125-151.7 48.175-232.675h248.050c-4.1 123-51.25 234.725-127.1 321.85l-15.375-12.3zM495.075-121.907v235.75c-54.325-1.025-106.6-9.225-156.825-24.6 35.875-79.95 89.175-151.7 156.825-211.15zM742.101 328.069h-212.175v-178.35c58.425-2.050 115.825-11.275 171.175-27.675 24.6 64.575 38.95 134.275 41 206.025zM687.776 89.243c-51.25 15.375-103.525 23.575-157.85 24.6v-235.75c67.65 58.425 120.95 131.2 157.85 211.15z" />
<glyph unicode="&#xe836;" glyph-name="tv" horiz-adv-x="1281" d="M1185.926 857.994h-1090.601c-52.275 0-95.325-44.075-95.325-96.35v-695.976c0-53.3 43.050-96.35 95.325-96.35h1090.601c52.275 0 95.325 43.050 95.325 96.35v695.976c0 52.275-43.050 96.35-95.325 96.35zM905.076 172.268c0-37.925-29.725-67.65-66.625-67.65h-631.401c-36.9 0-65.6 29.725-65.6 67.65v480.725c0 37.925 28.7 67.65 65.6 67.65h631.401c36.9 0 66.625-29.725 66.625-67.65v-480.725zM1176.701 321.919c0-7.175-6.15-14.35-13.325-14.35h-138.375c-8.2 0-14.35 7.175-14.35 14.35v106.6c0 7.175 6.15 14.35 14.35 14.35h138.375c7.175 0 13.325-7.175 13.325-14.35v-106.6zM1176.701 547.419c0-8.2-6.15-14.35-13.325-14.35h-138.375c-8.2 0-14.35 6.15-14.35 14.35v105.575c0 8.2 6.15 14.35 14.35 14.35h138.375c7.175 0 13.325-6.15 13.325-14.35v-105.575zM95.325-116.782v38.95h147.6v-38.95c0-28.7-21.525-50.225-49.2-50.225h-49.2c-27.675 0-49.2 21.525-49.2 50.225zM1038.326-116.782v38.95h147.6v-38.95c0-28.7-21.525-50.225-49.2-50.225h-49.2c-27.675 0-49.2 21.525-49.2 50.225z" />
<glyph unicode="&#xe837;" glyph-name="card" horiz-adv-x="1538" d="M1437.051 857.994c55.35 0 100.45-46.125 100.45-102.5v-820.001c0-56.375-45.1-102.5-100.45-102.5h-1335.576c-56.375 0-101.475 46.125-101.475 103.525v818.976c0 56.375 45.1 102.5 101.475 102.5h1335.576zM101.475 760.619c-1.025 0-2.050-2.050-2.050-5.125v-190.65h1338.651v190.65c0 3.075-1.025 4.1-2.050 5.125h-1334.551zM1437.051-69.632c0 0 1.025 2.050 1.025 5.125v385.4h-1338.651v-385.4c0-3.075 1.025-5.125 2.050-5.125h1335.576zM644.726 174.318c27.675 0 49.2-21.525 49.2-48.175 0-27.675-21.525-49.2-49.2-49.2h-297.25c-27.675 0-50.225 21.525-50.225 49.2 0 26.65 22.55 48.175 50.225 48.175h297.25z" />
<glyph unicode="&#xe838;" glyph-name="video" horiz-adv-x="1242" d="M780.026 467.469l-214.225 106.6c-11.275 5.125-21.525 8.2-31.775 8.2-26.65 0-54.325-20.5-54.325-65.6v-199.875c0-45.1 27.675-65.6 55.35-65.6 10.25 0 20.5 3.075 31.775 8.2l211.15 106.6c23.575 12.3 37.925 30.75 37.925 51.25s-13.325 38.95-35.875 50.225zM535.051 279.894v0zM542.226 310.644c-2.050-1.025-4.1-1.025-5.125-2.050 0 2.050-1.025 5.125-1.025 8.2v199.875c0 3.075 1.025 6.15 1.025 7.175 1.025 0 2.050 0 4.1-1.025l211.15-105.575-210.125-106.6zM1158.251 857.994h-1073.176c-47.15 0-85.075-37.925-85.075-85.075v-683.676c0-47.15 37.925-85.075 85.075-85.075h423.325v-114.8h-112.75v-56.375h451v56.375h-112.75v114.8h424.35c46.125 0 84.050 37.925 84.050 85.075v683.676c0 47.15-37.925 85.075-84.050 85.075zM677.526-109.607h-112.75v113.775h112.75v-113.775zM1185.926 89.243c0-15.375-12.3-28.7-27.675-28.7h-1073.176c-15.375 0-28.7 13.325-28.7 28.7v683.676c0 15.375 13.325 27.675 28.7 27.675h1073.176c15.375 0 27.675-12.3 27.675-27.675v-683.676z" />
<glyph unicode="&#xe839;" glyph-name="water" horiz-adv-x="854" d="M853.826 275.794v-58.425c0-18.45-15.375-33.825-33.825-33.825h-171.175c-18.45 0-33.825 15.375-33.825 33.825v58.425c0 16.4 11.275 30.75 27.675 33.825v65.6c0 11.275-10.25 20.5-21.525 20.5h-7.175c-31.775-56.375-92.25-92.25-158.875-92.25s-126.075 35.875-157.85 92.25h-262.4c-19.475 0-34.85 15.375-34.85 34.85v112.75c0 18.45 15.375 33.825 34.85 33.825h265.475c21.525 35.875 55.35 62.525 94.3 75.85v42.025c0 3.075 0 5.125 1.025 7.175h-93.275c-18.45 0-34.85 15.375-34.85 33.825v49.2c0 19.475 16.4 34.85 34.85 34.85h92.25v4.1c0 18.45 15.375 33.825 34.85 33.825h52.275c18.45 0 34.85-15.375 34.85-33.825v-4.1h91.225c19.475 0 34.85-15.375 34.85-34.85v-49.2c0-18.45-15.375-33.825-34.85-33.825h-92.25c0-2.050 1.025-4.1 1.025-7.175v-42.025c37.925-13.325 71.75-39.975 93.275-75.85h66.625c82 0 147.6-65.6 147.6-145.55v-121.975c17.425-2.050 29.725-16.4 29.725-33.825zM817.951-52.207c0 2.050-1.025 4.1-1.025 5.125l-52.275 162.975c-4.1 13.325-17.425 23.575-32.8 23.575-14.35 0-27.675-10.25-32.8-23.575l-52.275-165.025c0-1.025 0-1.025 0-2.050-3.075-9.225-4.1-17.425-4.1-26.65 0-49.2 39.975-89.175 89.175-89.175 50.225 0 90.2 39.975 90.2 89.175 0 8.2-1.025 17.425-4.1 25.625z" />
<glyph unicode="&#xe83a;" glyph-name="phonecard" d="M557.601 345.494v-244.975c0-12.3-10.25-22.55-22.55-22.55h-423.325c-12.3 0-22.55 10.25-22.55 22.55v601.676c0 12.3 10.25 22.55 22.55 22.55h178.35v89.175h-200.9c-49.2 0-89.175-39.975-89.175-89.175v-802.576c0-49.2 39.975-89.175 89.175-89.175h468.425c49.2 0 88.15 39.975 88.15 89.175v423.325h-88.15zM322.875-100.382c-30.75 0-55.35 25.625-55.35 56.375 0 29.725 24.6 55.35 55.35 55.35s56.375-25.625 56.375-55.35c0-30.75-25.625-56.375-56.375-56.375zM979.901 857.994c24.6 0 45.1-21.525 45.1-47.15v-374.125c0-25.625-20.5-46.125-45.1-46.125h-600.651c-24.6 0-45.1 20.5-45.1 46.125v374.125c0 25.625 20.5 47.15 45.1 47.15h600.651zM379.25 813.919c0-1.025 0-1.025 0-3.075v-86.1h601.676v86.1c0 2.050-1.025 2.050-1.025 3.075h-600.651zM979.901 434.669c0 0 1.025 1.025 1.025 2.050v176.3h-601.676v-176.3c0-1.025 0-2.050 1.025-2.050h599.626zM624.226 546.394c12.3 0 21.525-10.25 21.525-22.55s-9.225-22.55-21.525-22.55h-134.275c-12.3 0-21.525 10.25-21.525 22.55s9.225 22.55 21.525 22.55h134.275z" />
<glyph unicode="&#xe83b;" glyph-name="we" horiz-adv-x="2904" d="M1665.627 857.994l-384.375-1025.001h-1195.151c-47.15 0-86.1 37.925-86.1 85.075 0 10.25 2.050 19.475 5.125 28.7l279.825 797.451c23.575 67.65 88.15 113.775 160.925 113.775h1219.751zM1708.677 857.994h1110.076c47.15 0 85.075-37.925 85.075-85.075 0-10.25-2.050-19.475-5.125-28.7l-278.8-797.451c-24.6-67.65-89.175-113.775-161.95-113.775h-1133.651l384.375 1025.001zM876.376 58.493c0 11.275-9.225 21.525-21.525 21.525h-130.175c-11.275 0-20.5-9.225-20.5-21.525v-22.55c0-18.45 12.3-32.8 29.725-35.875l5.125-20.5c3.075-10.25 12.3-18.45 23.575-18.45h54.325c11.275 0 21.525 8.2 24.6 18.45l5.125 20.5c16.4 3.075 29.725 17.425 29.725 35.875v22.55zM976.826 360.869c0 104.55-84.050 190.65-187.575 189.625s-186.55-86.1-185.525-191.675c1.025-50.225 20.5-95.325 52.275-129.15 24.6-25.625 39.975-59.45 46.125-94.3 2.050-15.375 15.375-26.65 29.725-26.65h115.825c15.375 0 28.7 11.275 30.75 26.65 5.125 34.85 21.525 67.65 46.125 94.3 31.775 33.825 52.275 79.95 52.275 131.2zM790.276 611.994c11.275 0 20.5 10.25 20.5 21.525v74.825c0 12.3-9.225 21.525-20.5 21.525-12.3 0-21.525-9.225-21.525-21.525v-74.825c0-11.275 10.25-21.525 21.525-21.525zM543.251 360.869c0 12.3-10.25 21.525-21.525 21.525h-73.8c-11.275 0-20.5-9.225-20.5-21.525 0-11.275 9.225-21.525 20.5-21.525h73.8c11.275 0 21.525 10.25 21.525 21.525zM1132.626 382.394h-73.8c-12.3 0-21.525-9.225-21.525-21.525 0-11.275 9.225-21.525 21.525-21.525h73.8c11.275 0 20.5 10.25 20.5 21.525 0 12.3-9.225 21.525-20.5 21.525zM585.276 183.543l-52.275-53.3c-8.2-8.2-8.2-21.525 0-29.725 4.1-4.1 10.25-6.15 15.375-6.15s10.25 2.050 14.35 6.15l52.275 52.275c8.2 8.2 8.2 22.55 0 30.75s-21.525 8.2-29.725 0zM979.901 532.044c5.125 0 10.25 2.050 14.35 6.15l52.275 53.3c8.2 8.2 8.2 21.525 0 30.75-8.2 8.2-21.525 8.2-29.725 0l-52.275-53.3c-8.2-8.2-8.2-21.525 0-30.75 5.125-4.1 10.25-6.15 15.375-6.15zM585.276 539.219c4.1-4.1 10.25-6.15 15.375-6.15s10.25 2.050 14.35 6.15c8.2 8.2 8.2 21.525 0 29.725l-52.275 53.3c-8.2 8.2-21.525 8.2-29.725 0s-8.2-21.525 0-30.75l52.275-52.275zM994.251 183.543c-8.2 8.2-21.525 8.2-29.725 0s-8.2-22.55 0-30.75l52.275-52.275c4.1-4.1 10.25-6.15 15.375-6.15s10.25 2.050 14.35 6.15c8.2 8.2 8.2 21.525 0 29.725l-52.275 53.3zM2477.427 165.093c0 13.325-10.25 23.575-22.55 25.625v91.225c0 60.475-50.225 109.675-110.7 109.675h-50.225c-16.4 26.65-41 46.125-70.725 56.375v31.775c0 2.050 0 3.075 0 5.125h69.7c14.35 0 25.625 11.275 25.625 25.625v36.9c0 14.35-11.275 25.625-25.625 25.625h-69.7v3.075c0 14.35-11.275 25.625-25.625 25.625h-38.95c-14.35 0-26.65-11.275-26.65-25.625v-3.075h-68.675c-14.35 0-25.625-11.275-25.625-25.625v-36.9c0-14.35 11.275-25.625 25.625-25.625h69.7c0-2.050-1.025-3.075-1.025-5.125v-31.775c-28.7-10.25-54.325-29.725-70.725-56.375h-198.85c-14.35 0-25.625-12.3-25.625-25.625v-85.075c0-14.35 11.275-25.625 25.625-25.625h196.8c23.575-42.025 68.675-68.675 118.9-68.675s95.325 26.65 118.9 68.675h5.125c9.225 0 16.4-7.175 16.4-16.4v-48.175c-12.3-3.075-21.525-13.325-21.525-25.625v-43.050c0-14.35 12.3-25.625 26.65-25.625h127.1c14.35 0 26.65 11.275 26.65 25.625v43.050z" />
<glyph unicode="&#xe83c;" glyph-name="document" horiz-adv-x="726" d="M454.075 857.994h-362.85c-50.225 0-91.225-46.125-91.225-102.5v-820.001c0-56.375 39.975-102.5 90.2-102.5h545.301c50.225 0 90.2 46.125 90.2 102.5v615.001l-271.625 307.5zM544.276 37.993h-362.85v102.5h362.85v-102.5zM544.276 242.994h-362.85v102.5h362.85v-102.5zM407.95 499.244v281.875l250.1-281.875h-250.1z" />
<glyph unicode="&#xe83d;" glyph-name="electric" horiz-adv-x="991" d="M612.951-37.857v-29.725c0-23.575-17.425-44.075-39.975-47.15l-8.2-27.675c-4.1-14.35-17.425-24.6-32.8-24.6h-73.8c-15.375 0-28.7 10.25-32.8 24.6l-7.175 27.675c-22.55 3.075-41 23.575-41 47.15v29.725c0 16.4 13.325 29.725 29.725 29.725h177.325c16.4-1.025 28.7-13.325 28.7-29.725zM749.276 365.994c0-67.65-26.65-130.175-70.725-175.275-33.825-34.85-55.35-78.925-62.525-126.075-3.075-19.475-20.5-34.85-42.025-34.85h-157.85c-20.5 0-37.925 14.35-41 34.85-7.175 47.15-29.725 92.25-62.525 126.075-44.075 45.1-70.725 105.575-71.75 172.2-1.025 140.425 111.725 254.2 253.175 255.225s255.225-111.725 255.225-252.15zM523.775 518.719c0 15.375-12.3 28.7-28.7 28.7-100.45 0-183.475-82-183.475-182.45 0-15.375 13.325-28.7 28.7-28.7 16.4 0 28.7 13.325 28.7 28.7 0 69.7 57.4 125.050 126.075 125.050 16.4 0 28.7 13.325 28.7 28.7zM495.075 701.169c16.4 0 28.7 13.325 28.7 28.7v99.425c0 15.375-12.3 28.7-28.7 28.7-15.375 0-28.7-12.3-28.7-28.7v-99.425c0-15.375 13.325-28.7 28.7-28.7zM157.85 365.994c0 15.375-12.3 28.7-28.7 28.7h-100.45c-15.375 0-28.7-12.3-28.7-28.7 0-15.375 12.3-28.7 28.7-28.7h100.45c16.4 0 28.7 13.325 28.7 28.7zM962.476 394.694h-100.45c-16.4 0-28.7-12.3-28.7-28.7 0-15.375 12.3-28.7 28.7-28.7h100.45c15.375 0 28.7 13.325 28.7 28.7s-13.325 28.7-28.7 28.7zM216.275 129.218l-70.725-70.725c-11.275-11.275-11.275-28.7 0-39.975 5.125-6.15 12.3-8.2 19.475-8.2s15.375 2.050 20.5 8.2l70.725 70.725c11.275 11.275 11.275 28.7 0 39.975-10.25 11.275-28.7 11.275-39.975 0zM754.401 594.569c7.175 0 14.35 3.075 20.5 8.2l70.725 70.725c11.275 11.275 11.275 29.725 0 41-11.275 10.25-28.7 10.25-39.975 0l-71.75-70.725c-11.275-11.275-11.275-29.725 0-41 6.15-5.125 13.325-8.2 20.5-8.2zM216.275 602.769c5.125-5.125 13.325-8.2 20.5-8.2s14.35 3.075 19.475 8.2c11.275 11.275 11.275 29.725 0 41l-70.725 70.725c-11.275 11.275-29.725 11.275-41 0s-11.275-29.725 0-41l71.75-70.725zM774.901 129.218c-11.275 11.275-29.725 11.275-41 0s-11.275-28.7 0-39.975l71.75-70.725c5.125-6.15 12.3-8.2 19.475-8.2s15.375 2.050 20.5 8.2c11.275 11.275 11.275 28.7 0 39.975l-70.725 70.725z" />
<glyph unicode="&#xe83e;" glyph-name="fado" d="M330.050 751.394c60.475 65.6 147.6 106.6 243.95 106.6 79.95 0 153.75-28.7 211.15-75.85h1.025c2.050-2.050 4.1-4.1 6.15-5.125 4.1-4.1 8.2-8.2 12.3-11.275v0c37.925-36.9 66.625-82 84.050-132.225 0 0 0 0 0 0 11.275-33.825 17.425-69.7 17.425-107.625 0-183.475-148.625-332.1-332.1-332.1s-332.1 148.625-332.1 332.1c0 12.3 1.025 25.625 2.050 36.9-1.025 1.025-1.025 2.050-2.050 3.075 2.050 15.375 5.125 29.725 9.225 44.075 0 2.050 0 3.075 1.025 5.125 1.025 6.15 4.1 12.3 5.125 18.45 2.050 3.075 3.075 6.15 4.1 10.25 2.050 5.125 4.1 10.25 6.15 15.375 4.1 7.175 7.175 15.375 11.275 22.55 1.025 3.075 3.075 5.125 4.1 8.2 4.1 6.15 8.2 12.3 11.275 18.45 2.050 2.050 3.075 4.1 4.1 6.15 6.15 8.2 12.3 16.4 19.475 24.6 0 0 1.025 0 1.025 0 2.050 2.050 4.1 4.1 6.15 6.15-1.025 0-1.025 1.025-1.025 1.025 2.050 2.050 4.1 3.075 5.125 5.125 0 0 0 0 1.025 0zM392.575-4.032c43.050 0 77.9-35.875 77.9-78.925s-34.85-77.9-77.9-77.9c-43.050 0-78.925 34.85-78.925 77.9s35.875 78.925 78.925 78.925zM706.226-4.032c43.050 0 77.9-35.875 77.9-78.925s-34.85-77.9-77.9-77.9c-44.075 0-78.925 34.85-78.925 77.9s34.85 78.925 78.925 78.925zM571.951 59.518c-39.975 0-80.975 6.15-120.95 16.4-112.75 29.725-210.125 101.475-272.65 201.925-59.45 94.3-83.025 206.025-66.625 315.7l1.025 9.225-20.5 5.125-3.075-1.025c-8.2-4.1-17.425-6.15-26.65-6.15-4.1 0-9.225 1.025-13.325 2.050-33.825 6.15-55.35 39.975-48.175 72.775 6.15 28.7 31.775 50.225 60.475 50.225 5.125 0 9.225-1.025 13.325-2.050 18.45-3.075 33.825-15.375 43.050-32.8l1.025-4.1 53.3-14.35c17.425-4.1 29.725-18.45 30.75-33.825 0-5.125 0-12.3-1.025-15.375-46.125-212.175 69.7-413.075 270.6-466.375 32.8-9.225 65.6-13.325 99.425-13.325 172.2 0 323.9 115.825 369 281.875v0 1.025c4.1 18.45 21.525 30.75 39.975 30.75 3.075 0 7.175 0 10.25-1.025 11.275-3.075 19.475-10.25 25.625-19.475 5.125-10.25 7.175-21.525 4.1-31.775-1.025-1.025-1.025-2.050-1.025-3.075v-1.025c-55.35-200.9-239.85-341.325-447.925-341.325zM899.951 591.494c-1.025 4.1-2.050 7.175-3.075 11.275-1.025 0-2.050-1.025-2.050-1.025-2.050-2.050-9.225-6.15-11.275-8.2-2.050-1.025-2.050-4.1-2.050-5.125v0c-2.050 0-2.050-5.125 0-6.15 1.025-1.025 4.1 4.1 5.125 5.125 2.050 1.025 5.125 2.050 6.15 2.050 0-1.025 3.075 0 7.175 2.050-1.025 0 0 0 0 0zM885.601 474.644c0 6.15 9.225 6.15 12.3 4.1 0-5.125-8.2-7.175-12.3-4.1zM899.951 470.544c-1.025 0-6.15-1.025-6.15 0-1.025 1.025-2.050-2.050-3.075-2.050s0-3.075 1.025-2.050c1.025 0 5.125-2.050 8.2-4.1 0 3.075 1.025 6.15 1.025 9.225 0 0-1.025-1.025-1.025-1.025zM338.25 534.094c0-1.025 5.125-1.025 6.15-1.025 2.050 0 1.025 1.025 0 2.050s-6.15 0-6.15-1.025zM785.151 782.144h-2.050c-3.075 0-9.225 2.050-10.25 3.075s-5.125-1.025-5.125-3.075c-1.025-2.050-7.175-3.075-8.2-5.125 0-1.025-4.1-1.025-4.1 0-1.025 0-7.175-3.075-10.25-3.075-2.050-1.025-8.2-3.075-9.225-3.075-2.050-1.025-5.125-4.1-5.125-5.125-1.025-2.050-4.1-4.1-6.15-4.1-1.025 0-1.025-6.15 1.025-7.175 1.025-1.025-3.075 1.025-5.125 2.050s-4.1-2.050-5.125-4.1c0-1.025-2.050 1.025-2.050 3.075 0 1.025-5.125 3.075-6.15 1.025 0-1.025-4.1 1.025-5.125 2.050s-8.2-6.15-10.25-8.2c-2.050-2.050-13.325-4.1-15.375-3.075s-4.1-5.125-2.050-5.125c2.050-1.025-5.125 0-8.2 0-3.075-1.025-13.325-4.1-15.375-6.15-3.075-2.050-5.125 0-5.125 2.050 0 1.025-3.075 3.075-5.125 3.075 0 0-3.075-8.2-5.125-9.225-1.025-1.025-4.1 6.15-8.2 7.175-5.125 2.050-12.3 6.15-14.35 7.175-2.050 0-6.15 5.125-7.175 5.125-1.025 2.050-7.175 3.075-9.225 3.075s-7.175-4.1-9.225-5.125c-2.050-2.050-4.1-1.025-5.125-2.050s-8.2-7.175-11.275-9.225c-2.050-2.050-7.175-11.275-8.2-13.325-2.050-3.075-4.1-3.075-5.125-3.075s-2.050-2.050-2.050-3.075c0-1.025-7.175-5.125-8.2-9.225s1.025-12.3 1.025-14.35c0-3.075 2.050-9.225 5.125-9.225 2.050 0 0-5.125 0-6.15 0-2.050 1.025-3.075 1.025-5.125 0-1.025-5.125-2.050-7.175-3.075s-4.1-5.125-5.125-6.15c0-1.025-5.125-2.050-7.175-4.1 0 2.050 1.025 3.075 1.025 4.1 1.025 2.050 0 5.125-1.025 6.15s-2.050 10.25-3.075 12.3c-1.025 2.050-4.1 6.15-5.125 6.15s0 3.075 1.025 4.1c0 1.025-5.125 2.050-6.15 1.025-2.050-1.025-3.075-10.25-3.075-13.325-1.025-2.050 2.050-6.15 3.075-7.175 1.025 0 1.025-5.125-1.025-5.125s-3.075-6.15-2.050-8.2c1.025-2.050-1.025-5.125-2.050-6.15-1.025 0 6.15 0 10.25 0 3.075 0 6.15-1.025 6.15-1.025-1.025-1.025-7.175-2.050-8.2-3.075-1.025-2.050-6.15-5.125-7.175-6.15 0-1.025 2.050-3.075 4.1-3.075 1.025 0 3.075-7.175 5.125-8.2 1.025-1.025 1.025-4.1 1.025-5.125-1.025-1.025-10.25 0-13.325 0-3.075-1.025-7.175-8.2-7.175-10.25-1.025-3.075 0-10.25 0-12.3 1.025-2.050 8.2-3.075 9.225-4.1s8.2 0 9.225 0c2.050-1.025 6.15 6.15 7.175 10.25 0 3.075 7.175 9.225 9.225 11.275 1.025 3.075 8.2 2.050 10.25 4.1 2.050 1.025 1.025-6.15 2.050-10.25s8.2-3.075 7.175 1.025c-1.025 3.075 1.025 5.125 1.025 3.075 0-1.025 7.175-4.1 8.2-6.15s1.025-6.15-1.025-6.15c-1.025 0-1.025-4.1 0-5.125 2.050 0 4.1 5.125 6.15 6.15s3.075 5.125 2.050 5.125c-1.025 0 1.025 3.075 2.050 2.050s-3.075 7.175-6.15 10.25c-3.075 3.075-1.025 2.050 5.125-3.075l3.075-5.125c1.025-1.025 2.050-4.1 2.050-5.125l1.025-1.025c1.025-2.050 2.050-7.175 2.050-9.225 0-1.025 2.050-4.1 4.1-4.1s3.075-1.025 3.075-1.025c0 0 1.025-3.075 3.075-3.075s2.050 4.1 1.025 4.1c-2.050 0-2.050 7.175-2.050 10.25s1.025 5.125 2.050 5.125c0 0 0-6.15 0-7.175 0-2.050 1.025-5.125 1.025-6.15l2.050-2.050 4.1-3.075c6.15 2.050 14.35 1.025 14.35-1.025 0-1.025 5.125-1.025 5.125 1.025 0 1.025 0 0 0-2.050 0-1.025-4.1-6.15-5.125-9.225 0-2.050-14.35-1.025-20.5 0-5.125 0-14.35-2.050-15.375-3.075 0-2.050-9.225 4.1-14.35 5.125-4.1 2.050-7.175 9.225-8.2 10.25-1.025 0 1.025 2.050 1.025 4.1-1.025 1.025-10.25 1.025-13.325 0s-17.425-3.075-21.525-4.1c-3.075-1.025-8.2 0-10.25 0-1.025 1.025-5.125-4.1-7.175-5.125s-4.1-7.175-5.125-15.375l-3.075-5.125-2.050-3.075c-4.1-3.075-10.25-15.375-11.275-18.45-2.050-2.050-3.075-19.475-3.075-25.625s5.125-19.475 6.15-22.55c2.050-3.075 10.25-11.275 14.35-12.3 2.050-2.050 12.3-2.050 15.375-2.050s7.175 3.075 8.2 6.15h7.175c0-3.075 6.15-5.125 8.2-6.15s6.15 0 8.2 0c1.025 1.025 2.050-11.275 1.025-15.375-1.025-3.075 3.075-15.375 4.1-19.475 0-4.1 5.125-14.35 5.125-17.425 0-4.1-2.050-16.4-3.075-20.5 0-4.1 5.125-16.4 7.175-20.5 1.025-4.1 3.075-12.3 3.075-14.35s6.15-14.35 8.2-19.475c2.050-5.125 17.425-7.175 21.525-4.1 4.1 2.050 12.3 13.325 14.35 15.375s4.1 10.25 5.125 12.3c0 2.050 4.1 4.1 5.125 5.125 1.025 0 5.125 18.45 9.225 22.55 4.1 3.075 8.2 22.55 8.2 29.725-1.025 7.175 2.050 19.475 3.075 22.55s5.125 9.225 7.175 10.25c1.025 0 10.25 14.35 13.325 19.475 3.075 4.1 5.125 15.375 5.125 17.425 0 3.075-7.175 4.1-8.2 3.075s-7.175-2.050-9.225-2.050c-2.050 0-6.15 10.25-8.2 12.3-3.075 2.050-5.125 14.35-7.175 16.4-1.025 2.050-6.15 8.2-7.175 9.225s-1.025 7.175-2.050 9.225c0 2.050 3.075-1.025 3.075-3.075 1.025-3.075 8.2-13.325 10.25-16.4s8.2-14.35 9.225-17.425c1.025-3.075 14.35-2.050 18.45 0s9.225 5.125 9.225 7.175c0 1.025 7.175 4.1 9.225 5.125s3.075 9.225 4.1 10.25c2.050 1.025-1.025 8.2-2.050 11.275-1.025 2.050-8.2 3.075-9.225 3.075-1.025-1.025-4.1 5.125-5.125 7.175s-6.15 4.1-6.15 5.125c-1.025 2.050 1.025 4.1 2.050 5.125 1.025 0 10.25-6.15 13.325-10.25 2.050-3.075 5.125-9.225 6.15-10.25 0 0 7.175-1.025 9.225 0 1.025 1.025 3.075 1.025 4.1 0h2.050l8.2 1.025c3.075-4.1 5.125-7.175 4.1-8.2 0-1.025 3.075-4.1 4.1-4.1 1.025-1.025 3.075-6.15 3.075-7.175 1.025-2.050 5.125-9.225 6.15-12.3 1.025-4.1 5.125-10.25 6.15-12.3s2.050-7.175 2.050-8.2c0-1.025 2.050-4.1 4.1-4.1s6.15 11.275 7.175 15.375c1.025 4.1 3.075 8.2 4.1 8.2s2.050 2.050 2.050 3.075c0 1.025 4.1 1.025 5.125 2.050 0 1.025 1.025 9.225 3.075 10.25s7.175 5.125 9.225 6.15c2.050 0 8.2-4.1 8.2-6.15 2.050-3.075 3.075-8.2 2.050-9.225 0 0 3.075-5.125 6.15-5.125 2.050 0 3.075-4.1 3.075-5.125s4.1-5.125 5.125-7.175c1.025-2.050 0-6.15 0-7.175-1.025-1.025 0-7.175 0-9.225 1.025-2.050 9.225-10.25 13.325-12.3 3.075-3.075 4.1 5.125 3.075 7.175-2.050 3.075-7.175 8.2-9.225 10.25-1.025 2.050-1.025 9.225-1.025 11.275 1.025 2.050 5.125-1.025 7.175-3.075 2.050-1.025 4.1-4.1 4.1-5.125s12.3 5.125 12.3 12.3c0 7.175 4.1 15.375 5.125 17.425 0 1.025-1.025 4.1-3.075 4.1-1.025 0 2.050 6.15 5.125 5.125 3.075 0 11.275 9.225 13.325 12.3s5.125 6.15 6.15 7.175c0 0 3.075 8.2 4.1 12.3 0 3.075-2.050 8.2-3.075 10.25 0 2.050-3.075 6.15-3.075 7.175-1.025 1.025-2.050 6.15-1.025 7.175 0 1.025 3.075 1.025 3.075 2.050 1.025 1.025 4.1 4.1 4.1 6.15-1.025 2.050 2.050-2.050 3.075-3.075 2.050-1.025 3.075-9.225 5.125-10.25s10.25 8.2 9.225 15.375c-1.025 6.15 2.050 14.35 4.1 15.375 1.025 0 3.075 4.1 6.15 7.175-17.425 50.225-47.15 95.325-84.050 132.225h-1.025c-4.1 0-6.15 4.1-6.15 6.15-2.050 1.025-4.1 3.075-5.125 5.125-2.050 1.025-5.125 3.075-7.175 5.125zM360.8 549.469c-1.025 0-3.075 3.075-5.125 4.1-1.025 0-2.050-3.075-2.050-3.075 0-1.025 1.025-2.050 1.025-2.050 1.025 0 3.075-3.075 4.1-3.075 3.075 2.050 3.075 5.125 2.050 4.1zM350.55 537.169c0-1.025 6.15-2.050 7.175-3.075s3.075 2.050 6.15 1.025c2.050 0-1.025 7.175-5.125 7.175s-6.15 4.1-7.175 4.1c-1.025 0-5.125 3.075-7.175 4.1-1.025 1.025-10.25 2.050-13.325 2.050s-7.175-3.075-7.175-4.1c-1.025-1.025 5.125-2.050 6.15-1.025 2.050 1.025 9.225-1.025 11.275-3.075 1.025-2.050 4.1-3.075 7.175-2.050 2.050 0 1.025-4.1 2.050-5.125zM352.6 557.669c0 1.025-2.050 2.050-3.075 2.050s-1.025-1.025-1.025-4.1c0-2.050 5.125 1.025 4.1 2.050zM370.025 533.069c0-1.025 4.1-1.025 5.125 1.025 1.025 1.025 1.025 3.075-1.025 3.075-1.025 0-4.1-3.075-4.1-4.1zM330.050 751.394c-2.050-2.050-4.1-4.1-5.125-6.15 0-2.050 0-3.075 0-5.125-1.025-3.075-4.1-4.1-4.1-2.050 0 0-1.025 0-2.050 1.025-39.975-49.2-67.65-109.675-74.825-176.3 1.025-1.025 2.050-2.050 2.050-3.075 1.025-3.075 6.15-4.1 7.175-5.125s1.025 5.125 0 7.175c0 1.025 2.050 2.050 2.050 1.025s4.1-6.15 6.15-8.2c1.025-2.050 3.075-14.35 5.125-17.425 1.025-3.075 15.375-8.2 20.5-9.225s10.25-6.15 11.275-8.2c1.025-1.025 7.175-2.050 9.225-3.075 1.025 0 4.1-4.1 5.125-5.125 2.050-1.025 3.075-3.075 3.075-4.1s8.2-4.1 10.25-6.15c2.050-2.050 5.125-1.025 6.15-1.025 0 1.025 2.050-4.1 3.075-5.125 1.025-2.050 1.025-7.175 0-7.175 0-1.025-2.050-9.225-3.075-11.275s-4.1-13.325-4.1-16.4c1.025-2.050 5.125-7.175 6.15-7.175 2.050-1.025 1.025-4.1 0-4.1s-1.025-11.275 2.050-13.325c3.075-2.050 6.15-7.175 5.125-8.2 2.050-1.025 8.2-7.175 10.25-9.225s7.175-11.275 8.2-15.375c1.025-3.075 1.025-8.2 0-9.225 0-1.025 1.025-4.1 2.050-5.125 0-1.025-2.050-11.275-2.050-15.375 1.025-3.075-4.1-16.4-4.1-21.525 0-6.15 3.075-14.35 4.1-14.35 1.025 1.025 1.025-5.125-1.025-6.15-1.025 0-4.1-5.125-2.050-5.125 1.025-1.025 0-5.125 0-7.175s2.050-14.35 2.050-18.45c0-3.075 5.125-10.25 6.15-13.325 1.025-2.050 2.050-7.175 2.050-8.2 1.025-1.025 1.025-1.025 1.025-1.025s4.1-2.050 5.125-3.075c1.025 0 8.2 0 10.25 0 2.050 1.025 0 3.075-1.025 4.1s-2.050 7.175-3.075 7.175c-1.025 1.025-2.050 8.2 0 9.225 0 2.050 5.125 5.125 5.125 6.15s0 7.175 0 8.2c-1.025 1.025 0 8.2-1.025 12.3s6.15 7.175 7.175 10.25c0 3.075 8.2 6.15 10.25 7.175 2.050 2.050 3.075 10.25 2.050 12.3s3.075 3.075 5.125 3.075c2.050 0 3.075 2.050 4.1 2.050 0 0 3.075 3.075 3.075 4.1 1.025 1.025 4.1 10.25 5.125 11.275 2.050 1.025 4.1 7.175 4.1 8.2 0 2.050 3.075 7.175 4.1 8.2s8.2 4.1 10.25 5.125c1.025 1.025 3.075 13.325 3.075 17.425 1.025 4.1 3.075 10.25 3.075 11.275s2.050 3.075 3.075 3.075c0 1.025 2.050 6.15 3.075 7.175s5.125 6.15 5.125 7.175c0 2.050 1.025 4.1 2.050 7.175v7.175c-2.050 4.1-5.125 8.2-7.175 7.175 0-1.025-5.125 3.075-7.175 4.1-3.075 1.025-8.2 1.025-10.25 1.025-1.025 0-6.15 4.1-8.2 5.125-3.075 1.025-8.2 2.050-10.25 3.075 0 0-2.050 9.225-7.175 11.275-4.1 3.075-13.325 9.225-13.325 12.3-1.025 2.050-10.25 7.175-13.325 9.225s-7.175 2.050-7.175 2.050c-1.025-1.025-5.125 4.1-6.15 6.15-2.050 1.025-8.2 2.050-8.2 1.025s-3.075-1.025-4.1 0c-1.025 1.025-4.1 0-5.125-1.025-2.050 0-6.15-7.175-8.2-8.2-2.050-2.050-4.1 1.025-6.15 2.050-1.025 1.025-6.15-1.025-8.2-2.050-1.025-1.025-4.1 8.2-3.075 11.275 1.025 4.1-3.075 12.3-7.175 12.3-3.075 0-4.1 8.2-3.075 10.25 0 3.075-6.15 5.125-7.175 5.125-2.050 0-6.15-3.075-7.175-5.125s-15.375 2.050-13.325 11.275c2.050 9.225 9.225 18.45 10.25 19.475 2.050 0 11.275 1.025 13.325 0s4.1 0 4.1 0c1.025 1.025 8.2 0 10.25 0 3.075-1.025 6.15-10.25 8.2-11.275s3.075 6.15 4.1 7.175c0 2.050-2.050 6.15-2.050 7.175-1.025 2.050 3.075 12.3 7.175 14.35s7.175 8.2 7.175 8.2c-1.025 1.025 3.075 2.050 4.1 3.075 0 0 0 9.225 1.025 11.275 1.025 1.025 8.2 6.15 10.25 6.15 2.050 1.025 4.1 7.175 3.075 8.2s5.125 6.15 8.2 7.175c3.075 1.025 6.15-2.050 5.125-2.050 1.025 0 5.125 2.050 7.175 4.1 2.050 1.025 0 5.125-1.025 7.175-2.050 1.025-1.025 6.15 1.025 6.15s3.075 5.125 3.075 5.125c-1.025 1.025 7.175 0 10.25 2.050s1.025-5.125-2.050-8.2c-2.050-3.075 2.050-6.15 3.075-5.125 2.050 0 3.075-2.050 3.075-3.075 1.025-1.025 4.1 1.025 5.125 0 2.050-1.025 4.1 3.075 4.1 4.1 0 2.050-5.125 5.125-6.15 7.175s-1.025 13.325-1.025 15.375c0 3.075-3.075 6.15-4.1 6.15-1.025-1.025-3.075 6.15-4.1 7.175-2.050 1.025-2.050 5.125-2.050 5.125 0 1.025-6.15 7.175-7.175 10.25-1.025 2.050-3.075 2.050-3.075 0 0-1.025-4.1-1.025-6.15-1.025-1.025 0-2.050 6.15-2.050 8.2 0 3.075-7.175 3.075-9.225 5.125-1.025 2.050-5.125 1.025-6.15 2.050s-5.125 2.050-5.125 2.050c-1.025-1.025-1.025-17.425-2.050-21.525-1.025-5.125-4.1-8.2-6.15-8.2-1.025 0 0-3.075 1.025-3.075 1.025 1.025-3.075-4.1-3.075-8.2-1.025-3.075-4.1 0-5.125 3.075 0 3.075-4.1 7.175-5.125 6.15 0-1.025-2.050 1.025-4.1 0-1.025 0-7.175 4.1-9.225 5.125-2.050 2.050-4.1 10.25-6.15 10.25-1.025 1.025 0 2.050 0 3.075s5.125 5.125 6.15 7.175c2.050 2.050 7.175 9.225 9.225 10.25 3.075 2.050 4.1 6.15 4.1 7.175s9.225 3.075 12.3 4.1c3.075 1.025 5.125 9.225 5.125 10.25 0 3.075-2.050 6.15-3.075 7.175-1.025 0 4.1 1.025 5.125 0 2.050-1.025 6.15 1.025 9.225 0 2.050-1.025 6.15-3.075 8.2-5.125v-5.125l-1.025-9.225c-8.2-4.1-10.25-9.225-7.175-9.225 2.050 0 14.35-5.125 17.425-7.175 4.1-3.075 5.125 3.075 6.15 5.125s0 8.2 0 9.225c-1.025 1.025 4.1 1.025 5.125-1.025 1.025-1.025 3.075 2.050 4.1 2.050 1.025 1.025 1.025 6.15 2.050 7.175 1.025 0-2.050 1.025-2.050 3.075 0 1.025-5.125 3.075-7.175 4.1s-3.075 5.125-2.050 5.125c1.025 1.025 0 6.15-1.025 7.175s-6.15 3.075-8.2 3.075c-2.050 0-4.1 4.1-5.125 5.125-1.025 0-8.2 1.025-10.25 1.025-2.050-1.025-5.125 5.125-8.2 3.075-4.1-2.050-6.15 2.050-8.2 3.075-1.025 1.025-8.2-7.175-8.2-13.325 0-5.125 3.075-10.25 4.1-10.25s-1.025-5.125-2.050-6.15c-1.025-2.050-4.1 1.025-3.075 2.050 1.025 2.050-3.075 7.175-4.1 9.225s-4.1 3.075-6.15 4.1zM360.8 770.869c4.1 0 10.25 1.025 11.275 2.050 0 1.025 0 4.1-1.025 5.125h2.050c1.025 0 4.1 8.2 6.15 10.25 1.025 2.050 10.25 4.1 12.3 6.15 3.075 1.025 7.175 6.15 9.225 6.15 2.050 1.025 4.1 5.125 4.1 6.15s6.15 4.1 9.225 6.15c2.050 0 3.075 4.1 2.050 4.1 0 0-6.15-4.1-14.35-8.2-8.2-5.125-16.4-10.25-24.6-16.4-7.175-5.125-14.35-10.25-21.525-16.4-2.050-2.050-4.1-4.1-6.15-6.15 3.075 0 9.225 1.025 11.275 1.025zM342.35 716.544c-1.025-1.025 0-6.15 1.025-6.15 3.075 0 6.15 7.175 9.225 6.15 2.050-2.050 4.1-2.050 4.1-1.025-1.025 0-8.2 4.1-9.225 4.1-1.025 1.025-4.1-2.050-5.125-3.075zM512.5 789.319c1.025 1.025 2.050 6.15 1.025 7.175 0 1.025 4.1 2.050 5.125 3.075s5.125 3.075 7.175 4.1c2.050 0 3.075 5.125 1.025 4.1-2.050 0-7.175 1.025-8.2 2.050s-8.2 2.050-10.25 1.025c-2.050-1.025 0 5.125 3.075 6.15 2.050 1.025 0 5.125-3.075 5.125s-11.275 1.025-13.325 1.025c-2.050 0-5.125 1.025-7.175 1.025-1.025 0-10.25-2.050-15.375-2.050-4.1 0-15.375-1.025-17.425-1.025-2.050-1.025-4.1-5.125-4.1-7.175 1.025-2.050-10.25-1.025-13.325-2.050-3.075 0-22.55-4.1-26.65-6.15-5.125-3.075-8.2-9.225-7.175-9.225s-3.075-4.1-5.125-5.125c-3.075-1.025-9.225-1.025-10.25-3.075-1.025-1.025 1.025-2.050 2.050-3.075s3.075 1.025 4.1 0c1.025-1.025 7.175-1.025 8.2-2.050 2.050 0-4.1-1.025-7.175-1.025s-2.050-6.15 0-7.175c2.050-1.025 8.2-1.025 9.225 0 0 1.025 6.15-1.025 9.225-2.050 3.075 0 5.125-7.175 6.15-8.2 1.025-2.050 1.025-7.175 1.025-9.225 0-1.025 5.125-4.1 6.15-3.075s0-2.050-2.050-2.050c-2.050 0 0-6.15 2.050-7.175 3.075-1.025 1.025-5.125 0-6.15-2.050-1.025-1.025-4.1-2.050-6.15-2.050-1.025 5.125-13.325 5.125-19.475s4.1-11.275 5.125-11.275c1.025 0 6.15-1.025 7.175-2.050 1.025-2.050 3.075 1.025 4.1 2.050 1.025 0 4.1 4.1 5.125 6.15 1.025 3.075 5.125 15.375 5.125 16.4 1.025 1.025 7.175 0 8.2 1.025s5.125 4.1 6.15 5.125c1.025 1.025 9.225 4.1 11.275 6.15 3.075 1.025 6.15 8.2 8.2 10.25 2.050 1.025-1.025 1.025-3.075 2.050s-1.025 3.075-1.025 4.1c1.025 0 8.2-1.025 10.25-2.050s7.175 2.050 5.125 3.075c-2.050 2.050-1.025 2.050 0 1.025s2.050 4.1 1.025 5.125c-1.025 1.025 7.175 6.15 5.125 11.275-1.025 5.125 3.075 11.275 4.1 11.275 2.050 0 2.050 6.15 0 6.15-3.075 0-1.025 1.025 0 2.050zM342.35 558.694c-2.050 0-3.075-2.050-3.075-3.075s1.025-2.050 2.050-2.050c1.025 1.025 2.050 4.1 1.025 5.125zM750.301 504.369c-1.025-3.075 7.175-8.2 7.175-7.175 1.025 2.050-1.025 7.175-2.050 8.2-2.050 2.050-3.075 1.025-5.125-1.025zM875.351 507.444c1.025-1.025 4.1 2.050 7.175 3.075 2.050 0 4.1 7.175 2.050 7.175-2.050 1.025-4.1 6.15-6.15 6.15-1.025 1.025-4.1-2.050-3.075-4.1 0-2.050-4.1-3.075-5.125-4.1s-1.025-3.075 0-3.075c1.025 0 5.125-4.1 5.125-5.125zM820.001 469.519c-2.050 3.075-6.15 8.2-10.25 11.275l-2.050 3.075-2.050 2.050c-1.025 4.1-6.15 6.15-6.15 7.175-1.025 1.025-2.050-3.075-4.1-2.050 1.025-1.025 3.075-2.050 5.125-4.1 4.1-3.075 13.325-24.6 14.35-26.65 3.075-1.025 6.15 5.125 5.125 9.225zM893.801 436.719c-4.1 0-10.25-3.075-10.25-4.1s-6.15-4.1-8.2-5.125c-2.050-1.025-6.15-7.175-6.15-9.225-1.025-1.025-6.15-1.025-8.2-2.050-1.025-1.025-5.125-3.075-5.125-5.125s-1.025-2.050-2.050 0l-3.075-2.050-2.050-3.075c-2.050-5.125-7.175-12.3-9.225-12.3-2.050-1.025-2.050-9.225-2.050-13.325 0-3.075 1.025-8.2 3.075-9.225v-3.075l1.025-6.15c-1.025-4.1 2.050-8.2 3.075-9.225s9.225 2.050 12.3 3.075c1.025 0 1.025 0 2.050 1.025 15.375 23.575 26.65 51.25 34.85 79.95 0-1.025 0 0 0 0zM650.876 388.544c0-3.075 5.125-5.125 6.15-4.1 2.050 0 6.15 8.2 7.175 10.25 0 2.050 1.025 7.175 1.025 8.2s1.025 4.1 1.025 4.1c0 1.025 1.025 3.075 2.050 6.15s-3.075 16.4-3.075 19.475c0 2.050-3.075-2.050-3.075-4.1-1.025-2.050-7.175-7.175-9.225-9.225-1.025-2.050-3.075-9.225-2.050-10.25 0-1.025-1.025-6.15-2.050-7.175-1.025-2.050 1.025-11.275 2.050-13.325zM868.176 479.769c-2.050 0-9.225-8.2-8.2-13.325s3.075-5.125 3.075-4.1c1.025 1.025 5.125 0 6.15-1.025 2.050 0 2.050 1.025 0 3.075-1.025 2.050 0 8.2 2.050 8.2 0 1.025-1.025 6.15-3.075 7.175zM869.201 535.119c1.025 1.025-1.025 4.1-4.1 5.125-4.1 0-3.075-9.225-2.050-10.25 2.050-2.050 5.125 3.075 6.15 5.125zM856.901 478.744c0 2.050 1.025 9.225 1.025 11.275 0 1.025-4.1 5.125-6.15 5.125-2.050 1.025-9.225-13.325-13.325-15.375-5.125-3.075-7.175-12.3-5.125-14.35 1.025-1.025 11.275-3.075 12.3-4.1 2.050-2.050 4.1 0 5.125 0 1.025 1.025 1.025 1.025 0 2.050 0 0 4.1 4.1 5.125 6.15 0 3.075 1.025 7.175 1.025 9.225zM856.901 558.694c-2.050-2.050-1.025-6.15 0-8.2 0-1.025 2.050-1.025 3.075 0 1.025 2.050-2.050 10.25-3.075 8.2zM821.026 452.094c-1.025-1.025 14.35-3.075 19.475-5.125 5.125-1.025 8.2-2.050 7.175-1.025s-14.35 7.175-17.425 8.2c-5.125 2.050-9.225 0-9.225-2.050z" />
<glyph unicode="&#xe83f;" glyph-name="phone" horiz-adv-x="991" d="M609.876 534.094l-8.2-8.2c-19.475-19.475-19.475-51.25 0-69.7l4.1-4.1c19.475-19.475 50.225-19.475 69.7 0l66.625 64.575 8.2 9.225c19.475 19.475 19.475 50.225 0 69.7l-4.1 4.1c-19.475 18.45-51.25 18.45-70.725 0l-65.6-65.6zM755.426 503.344l-66.625-64.575c-18.45-19.475-18.45-50.225 0-69.7l4.1-4.1c19.475-19.475 51.25-19.475 70.725 0l8.2 9.225 57.4 55.35 9.225 9.225c19.475 19.475 19.475 50.225 0 69.7l-4.1 4.1c-19.475 18.45-51.25 19.475-70.725 0l-8.2-9.225zM972.726 186.618l-294.175-291.1c-24.6-23.575-64.575-23.575-89.175 0l-51.25 50.225-53.3-52.275c0 0-79.95-78.925-187.575-56.375-1.025 0-2.050 0-3.075 0-4.1 1.025-9.225 3.075-13.325 4.1s-8.2 2.050-12.3 4.1c-4.1 1.025-8.2 2.050-12.3 4.1-7.175 4.1-15.375 7.175-23.575 12.3-2.050 1.025-5.125 3.075-7.175 4.1-7.175 4.1-14.35 9.225-20.5 14.35-3.075 2.050-5.125 4.1-8.2 6.15-9.225 7.175-18.45 15.375-27.675 24.6-104.55 103.525-99.425 194.75-79.95 240.875 0 1.025 15.375 58.425 34.85 127.1 5.125 19.475 11.275 39.975 16.4 60.475l-121.975 120.95c-24.6 24.6-24.6 64.575 0 88.15l294.175 291.1c24.6 24.6 64.575 24.6 89.175 0l170.15-168.1 16.4 15.375c19.475 18.45 50.225 18.45 69.7 0l4.1-4.1c19.475-19.475 19.475-50.225 0-69.7l-8.2-9.225-57.4-56.375-9.225-8.2c-18.45-19.475-50.225-19.475-69.7 0l-4.1 4.1c-19.475 18.45-19.475 50.225 0 69.7l9.225 8.2 18.45 19.475-144.525 142.475-320.825-317.75 78.925-77.9c13.325 47.15 25.625 89.175 31.775 108.65 19.475 62.525 69.7 60.475 94.3 22.55 18.45-29.725 4.1-96.35-6.15-172.2-1.025-15.375-6.15-39.975-12.3-65.6l319.8-316.725 321.85 317.75-24.6 23.575-27.675-27.675c-19.475-19.475-51.25-19.475-70.725 0l-4.1 4.1c-19.475 19.475-19.475 50.225 0 69.7l9.225 8.2 57.4 56.375 8.2 9.225c19.475 19.475 51.25 19.475 70.725 0l4.1-4.1c19.475-19.475 19.475-50.225 0-69.7l-9.225-8.2-7.175-7.175 62.525-61.5c24.6-23.575 24.6-63.55 0-88.15zM150.675 604.819c3.075-2.050 8.2-2.050 10.25 1.025l94.3 92.25c3.075 3.075 3.075 8.2 0 11.275s-7.175 3.075-10.25 0l-94.3-93.275c-3.075-3.075-3.075-8.2 0-11.275zM803.601 107.693c-12.3 12.3-32.8 12.3-45.1 0s-12.3-31.775 0-44.075c12.3-12.3 32.8-12.3 45.1 0s12.3 31.775 0 44.075z" />
<glyph unicode="&#xe840;" glyph-name="promo" horiz-adv-x="1074" d="M537.101-34.782l-166.050-132.225-56.375 205-212.175-9.225 74.825 198.85-177.325 117.875 177.325 117.875-74.825 198.85 212.175-9.225 56.375 205 166.050-132.225 166.050 132.225 56.375-205 212.175 9.225-74.825-198.85 177.325-117.875-177.325-117.875 74.825-198.85-212.175 9.225-56.375-205-166.050 132.225zM341.325 451.069c0-31.775 7.175-55.35 21.525-71.75 14.35-15.375 31.775-23.575 52.275-23.575 21.525 0 39.975 8.2 54.325 24.6 14.35 15.375 21.525 38.95 21.525 68.675s-7.175 53.3-21.525 68.675c-13.325 15.375-33.825 24.6-54.325 23.575-23.575 0-42.025-8.2-54.325-25.625-12.3-18.45-19.475-38.95-19.475-64.575zM416.15 172.268h35.875l190.65 369h-34.85l-191.675-369zM567.851 267.594c0-31.775 7.175-56.375 20.5-71.75 14.35-16.4 31.775-23.575 53.3-23.575s38.95 7.175 54.325 23.575c14.35 16.4 21.525 38.95 21.525 68.675 0 30.75-7.175 53.3-21.525 69.7-14.35 15.375-33.825 23.575-54.325 23.575-24.6 0-43.050-9.225-55.35-26.65s-18.45-38.95-18.45-63.55v0z" />
<glyph unicode="&#xe841;" glyph-name="sim" horiz-adv-x="871" d="M828.201 755.494c0 56.375-44.075 102.5-97.375 102.5h-393.6l-294.175-307.5v-615.001c0-56.375 44.075-102.5 98.4-102.5h589.376c54.325 0 97.375 46.125 97.375 102.5v820.001zM288.025-13.257h-98.4v102.5h98.4v-102.5zM681.626-13.257h-98.4v205h98.4v-205zM288.025 89.243h-98.4v307.5h98.4v-307.5zM484.825-13.257h-98.4v307.5h98.4v-307.5zM484.825 294.244h-98.4v102.5h98.4v-102.5zM681.626 191.743h-98.4v205h98.4v-205z" />
<glyph unicode="&#xe842;" glyph-name="supp" d="M511.475 857.994c-257.275 0-466.375-217.3-466.375-485.85v-377.2c0-90.2 69.7-161.95 155.8-161.95h154.775v431.525h-207.050v107.625c0 209.1 161.95 378.225 362.85 378.225s362.85-169.125 362.85-378.225v-107.625h-207.050v-431.525h154.775c86.1 0 155.8 71.75 155.8 161.95v377.2c0 268.55-209.1 485.85-466.375 485.85z" />
<glyph unicode="&#xe843;" glyph-name="tablet" horiz-adv-x="1474" d="M1289.451 857.994h-1104.951c-67.65 0-123-57.4-123-128.125v-768.751c0-70.725 55.35-128.125 123-128.125h1104.951c67.65 0 121.975 57.4 121.975 128.125l1.025 768.751c0 70.725-55.35 128.125-123 128.125zM1166.451-38.882h-858.951v768.751h858.951v-768.751z" />
<glyph unicode="&#xe844;" glyph-name="ok-circled" horiz-adv-x="951" d="M476.625 803.669q188.6 0 322.875-134.275t134.275-323.9-134.275-322.875-322.875-135.3-323.9 135.3-134.275 322.875 134.275 323.9 323.9 134.275zM404.875 134.343l356.7 356.7-80.975 80.975-275.725-274.7-129.15 129.15-80.975-79.95z" />
<glyph unicode="&#xe845;" glyph-name="software" horiz-adv-x="923" d="M43.050 37.993l195.775 64.575v499.175l344.4 102.5v-743.126l-515.575 64.575 515.575-192.7 294.175 63.55v884.576l-297.25 76.875-537.101-191.675z" />
<glyph unicode="&#xe846;" glyph-name="plus-circled" horiz-adv-x="951" d="M476.625 803.669q188.6 0 322.875-134.275t134.275-323.9-134.275-322.875-322.875-135.3-323.9 135.3-134.275 322.875 134.275 323.9 323.9 134.275zM705.201 289.119v114.8h-171.175v171.175h-114.8v-171.175h-172.2v-114.8h172.2v-172.2h114.8v172.2h171.175z" />
<glyph unicode="&#xe847;" glyph-name="ffriend-min" horiz-adv-x="793" d="M792.326 857.994l-161.95-821.026c-37.925-123-137.35-203.975-248.050-203.975h-382.325l151.7 769.776 6.15 26.65c1.025 3.075 1.025 6.15 2.050 9.225 36.9 131.2 141.45 219.35 259.325 219.35h373.1zM214.225 509.494l-78.925-418.2 5.125 1.025c24.6 0 47.15 9.225 68.675 29.725 20.5 20.5 33.825 45.1 38.95 73.8l20.5 106.6h169.125c24.6 0 48.175 10.25 69.7 29.725 20.5 20.5 33.825 45.1 39.975 73.8l1.025 5.125h-259.325l16.4 84.050h244.975c24.6 0 47.15 10.25 68.675 29.725 20.5 20.5 33.825 46.125 39.975 74.825l1.025 5.125h-338.25c-24.6 0-48.175-10.25-68.675-30.75-21.525-20.5-34.85-45.1-38.95-64.575v0z" />
<glyph unicode="&#xe848;" glyph-name="spin" d="M876.376-4.032c-193.725-194.75-533.001-176.3-722.626 13.325-194.75 194.75-205 506.35-28.7 712.376 11.275 13.325 21.525 26.65 35.875 34.85 36.9 23.575 87.125 18.45 119.925-13.325 30.75-31.775 35.875-77.9 16.4-114.8-5.125-9.225-9.225-15.375-16.4-22.55-143.5-154.775-148.625-388.475-8.2-528.901 156.825-156.825 417.175-124.025 555.551 34.85 108.65 125.050 145.55 304.425 78.925 462.275-85.075 202.95-312.625 298.275-522.75 227.55v1.025c241.9 84.050 504.3-24.6 602.701-258.3 72.775-171.175 37.925-363.875-73.8-505.325-11.275-15.375-23.575-29.725-36.9-43.050z" />
<glyph unicode="&#xe849;" glyph-name="reload" d="M506.35 857.994c-272.65 0-495.075-215.25-506.35-483.8-1.025-19.475 13.325-20.5 13.325-20.5h86.1c16.4 0 19.475 10.25 19.475 18.45 10.25 203.975 180.4 366.95 387.45 366.95 109.675 0 210.125-46.125 279.825-120.95l-59.45-58.425c-11.275-12.3-11.275-27.675 5.125-31.775l253.175-51.25c21.525-5.125 47.15 11.275 37.925 45.1l-59.45 232.675c-2.050 9.225-16.4 22.55-29.725 13.325l-66.625-61.5c-91.225 93.275-219.35 151.7-360.8 151.7zM925.576 337.294c-16.4 0-19.475-10.25-19.475-18.45-10.25-203.975-180.4-366.95-386.425-366.95-110.7 0-210.125 46.125-280.85 120.95l60.475 58.425c10.25 12.3 10.25 27.675-5.125 31.775l-254.2 51.25c-21.525 5.125-47.15-11.275-37.925-45.1l59.45-232.675c2.050-9.225 16.4-22.55 30.75-13.325l65.6 61.5c91.225-93.275 219.35-151.7 361.825-151.7 271.625 0 494.050 215.25 505.325 484.825 1.025 18.45-13.325 19.475-13.325 19.475h-86.1z" />
<glyph unicode="&#xe84a;" glyph-name="print" horiz-adv-x="965" d="M887.651 564.844c41 0 76.875-35.875 76.875-79.95v-375.15c0-43.050-35.875-78.925-76.875-78.925h-77.9l34.85-156.825h-708.276l27.675 156.825h-84.050c-46.125 0-79.95 35.875-79.95 78.925v375.15c0 44.075 33.825 79.95 79.95 79.95h98.4v119.925h34.85v132.225h540.176v-132.225h34.85v-119.925h99.425zM249.075 768.819v-299.3h468.425v299.3h-468.425zM133.25 370.094c30.75 0 56.375 24.6 56.375 55.35 0 28.7-25.625 54.325-56.375 54.325-29.725 0-55.35-25.625-55.35-54.325 0-30.75 25.625-55.35 55.35-55.35zM197.825-78.857h581.176l-48.175 248.050h-496.1zM456.125 36.968h-142.475v35.875h142.475v-35.875zM659.076 36.968h-142.475v35.875h142.475v-35.875z" />
<glyph unicode="&#xe84b;" glyph-name="minus-circled" horiz-adv-x="951" d="M476.625 803.669q188.6 0 322.875-134.275t134.275-323.9-134.275-322.875-322.875-135.3-323.9 135.3-134.275 322.875 134.275 323.9 323.9 134.275zM705.201 289.119v114.8h-458.175v-114.8h458.175z" />
<glyph unicode="&#xe84c;" glyph-name="emo-happy" d="M267.525 806.744c-61.5 0-111.725-66.625-111.725-147.6 0-82 50.225-148.625 111.725-148.625s112.75 66.625 112.75 148.625c0 80.975-50.225 147.6-112.75 147.6zM756.451 806.744c-62.525 0-112.75-66.625-112.75-147.6 0-82 50.225-148.625 112.75-148.625 61.5 0 112.75 66.625 112.75 148.625 0 80.975-51.25 147.6-112.75 147.6zM969.651 192.769c-13.325 0-27.675-5.125-37.925-16.4-4.1-4.1-8.2-8.2-12.3-12.3-113.775-111.725-259.325-168.1-405.9-169.125-145.55-2.050-292.125 51.25-405.9 158.875l-15.375 15.375c-21.525 21.525-55.35 20.5-76.875-1.025-20.5-21.525-20.5-56.375 1.025-77.9 3.075-4.1 8.2-8.2 14.35-14.35l3.075-3.075c135.3-127.1 308.525-190.65 480.725-188.6 173.225 1.025 345.425 68.675 479.7 199.875 5.125 5.125 9.225 10.25 14.35 14.35 20.5 22.55 20.5 57.4-1.025 78.925-10.25 10.25-23.575 15.375-37.925 15.375z" />
<glyph unicode="&#xe84d;" glyph-name="crown" horiz-adv-x="858" d="M429.475 829.294c-39.975 0-72.775-32.8-72.775-73.8s32.8-73.8 72.775-73.8c39.975 0 75.85 32.8 75.85 73.8s-35.875 73.8-75.85 73.8zM380.275 601.744c-41-121.975-103.525-154.775-103.525-154.775s-53.3 148.625-111.725 236.775c-23.575-53.3-48.175-88.15-98.4-102.5-1.025-45.1 52.275-213.2 56.375-297.25h616.026c2.050 80.975 56.375 262.4 56.375 295.2-38.95 16.4-87.125 52.275-98.4 104.55-64.575-88.15-111.725-236.775-111.725-236.775s-62.525 32.8-103.525 154.775c-27.675-13.325-78.925-13.325-101.475 0zM75.85 829.294c-41 0-75.85-32.8-75.85-73.8s34.85-73.8 75.85-73.8c39.975 0 71.75 32.8 71.75 73.8s-31.775 73.8-71.75 73.8zM124.025 211.219v-121.975h615.001c0 44.075 0 83.025 0 121.975zM784.126 829.294c-41 0-73.8-32.8-73.8-73.8s32.8-73.8 73.8-73.8c41 0 73.8 32.8 73.8 73.8s-32.8 73.8-73.8 73.8z" />
<glyph unicode="&#xe84e;" glyph-name="tryon" horiz-adv-x="820" d="M52.275 162.018c8.2-10.25 18.45-18.45 29.725-24.6 19.475-78.925 56.375-151.7 110.7-212.175 55.35-58.425 133.25-92.25 214.225-92.25s158.875 33.825 214.225 92.25c54.325 60.475 91.225 133.25 110.7 212.175 11.275 6.15 21.525 14.35 29.725 24.6 17.425 21.525 30.75 46.125 38.95 72.775s13.325 53.3 13.325 80.975c0 6.15 0 12.3-1.025 18.45-1.025 21.525-10.25 42.025-23.575 58.425-8.2 9.225-18.45 16.4-30.75 21.525 3.075 9.225 5.125 19.475 7.175 30.75 20.5 112.75-7.175 322.875-243.95 394.625-124.025 44.075-262.4 8.2-350.55-89.175 0 0-166.050-50.225-119.925-338.25-10.25-5.125-18.45-11.275-26.65-19.475-13.325-16.4-21.525-36.9-23.575-58.425-1.025-6.15-1.025-12.3-1.025-18.45 1.025-36.9 9.225-73.8 23.575-107.625 7.175-16.4 16.4-31.775 28.7-46.125v0zM208.075 588.419c0 0 48.175 90.2 127.1 27.675 77.9-61.5 165.025-171.175 351.575-171.175l10.25-92.25h-14.35c0 0-2.050 29.725-48.175 33.825h-153.75c-18.45 0-34.85-11.275-42.025-29.725h-63.55c-7.175 18.45-23.575 29.725-42.025 29.725h-153.75c-46.125-4.1-48.175-33.825-48.175-33.825h-17.425c8.2 98.4 31.775 235.75 94.3 235.75zM59.45 360.869c1.025 2.050 3.075 3.075 5.125 5.125 16.4-49.2 33.825-101.475 44.075-110.7 0 0 0 26.65 3.075 64.575 0 0 2.050 0 3.075 0h15.375c0-4.1 1.025-3.075 2.050-7.175 3.075-22.55 8.2-44.075 8.2-44.075l1.025-2.050c5.125-15.375 14.35-29.725 25.625-41 14.35-11.275 30.75-17.425 49.2-17.425h71.75c13.325 1.025 26.65 4.1 37.925 10.25 14.35 6.15 25.625 17.425 32.8 31.775 3.075 7.175 6.15 14.35 8.2 22.55 5.125 20.5 9.225 37.925 11.275 49.2h57.4c2.050-11.275 6.15-28.7 12.3-49.2 1.025-8.2 4.1-15.375 7.175-22.55 7.175-14.35 18.45-25.625 32.8-31.775 11.275-6.15 24.6-9.225 37.925-10.25h71.75c18.45 0 35.875 6.15 49.2 17.425 11.275 11.275 20.5 25.625 25.625 41l1.025 2.050c0 0 5.125 21.525 9.225 44.075 0 4.1 1.025 3.075 1.025 7.175h16.4c0 0 6.15-47.15 6.15-47.15 16.4 30.75 29.725 62.525 39.975 95.325 3.075-2.050 6.15-5.125 8.2-7.175 7.175-9.225 12.3-20.5 12.3-31.775 1.025-5.125 1.025-9.225 1.025-13.325-1.025-30.75-7.175-60.475-19.475-88.15-5.125-12.3-12.3-23.575-21.525-34.85-5.125-7.175-12.3-12.3-20.5-15.375l-13.325-3.075-3.075-13.325c-16.4-74.825-51.25-144.525-101.475-201.925-47.15-50.225-112.75-78.925-181.425-78.925s-134.275 28.7-181.425 78.925c-50.225 57.4-85.075 127.1-101.475 201.925l-3.075 13.325-13.325 3.075c-8.2 3.075-15.375 8.2-20.5 15.375-13.325 17.425-23.575 35.875-29.725 57.4-7.175 20.5-10.25 43.050-11.275 65.6 0 4.1 0 8.2 1.025 13.325 0 11.275 5.125 22.55 12.3 31.775z" />
<glyph unicode="&#xe84f;" glyph-name="glasses" horiz-adv-x="3132" d="M3123.178 798.544v0c-3.075 2.050-7.175 3.075-11.275 4.1-1.025 0-51.25 9.225-125.050 20.5-32.8 5.125-64.575 9.225-105.575 14.35s-96.35 9.225-136.325 12.3c-82 4.1-162.975 8.2-272.65 6.15v0c-90.2-2.050-180.4-9.225-269.575-20.5-72.775-9.225-158.875-23.575-227.55-35.875-67.65-13.325-161.95-34.85-210.125-45.1s-114.8-25.625-188.6-26.65c-73.8 0-141.45 5.125-247.025 28.7-103.525 22.55-242.925 49.2-342.35 65.6-95.325 15.375-196.8 24.6-271.625 28.7v0c-115.825 6.15-232.675 5.125-348.5-3.075-114.8-10.25-156.825-16.4-215.25-25.625-57.4-9.225-109.675-19.475-109.675-19.475l-24.6-5.125c-5.125-1.025-9.225-3.075-12.3-7.175v0c-4.1-5.125-5.125-12.3-3.075-18.45 2.050-14.35 11.275-68.675 14.35-87.125 3.075-17.425 11.275-77.9 12.3-86.1s3.075-13.325 10.25-14.35c6.15-1.025 25.625 1.025 48.175-37.925 14.35-25.625 28.7-100.45 28.7-100.45s19.475-101.475 26.65-139.4c7.175-36.9 26.65-125.050 47.15-189.625v0c9.225-31.775 22.55-63.55 37.925-93.275v0c11.275-18.45 23.575-36.9 36.9-53.3v0c17.425-19.475 37.925-35.875 59.45-49.2v0c20.5-12.3 41-22.55 63.55-30.75 0 0 32.8-15.375 128.125-35.875v0c73.8-14.35 147.6-20.5 222.425-19.475 30.75 1.025 127.1 7.175 213.2 31.775 29.725 8.2 63.55 19.475 90.2 29.725v0c43.050 18.45 83.025 43.050 119.925 73.8v0c28.7 24.6 54.325 52.275 76.875 83.025 18.45 23.575 35.875 47.15 47.15 65.6 8.2 12.3 21.525 32.8 32.8 55.35 28.7 52.275 61.5 117.875 76.875 157.85 23.575 57.4 64.575 157.85 74.825 171.175v0c14.35 20.5 35.875 32.8 60.475 35.875 58.425 9.225 80.975-4.1 93.275-12.3v0c14.35-9.225 25.625-21.525 32.8-36.9 27.675-51.25 57.4-121.975 72.775-159.9v0c27.675-62.525 57.4-124.025 91.225-183.475 30.75-53.3 68.675-109.675 111.725-151.7 42.025-42.025 97.375-76.875 167.075-103.525 70.725-27.675 167.075-47.15 264.45-53.3v0c68.675-3.075 138.375 1.025 207.050 11.275v0c45.1 7.175 89.175 17.425 132.225 28.7v0c19.475 5.125 38.95 12.3 57.4 20.5v0c42.025 17.425 77.9 45.1 106.6 79.95 12.3 14.35 32.8 44.075 56.375 108.65 13.325 36.9 17.425 49.2 43.050 149.65 24.6 97.375 47.15 210.125 47.15 210.125s15.375 76.875 26.65 95.325c10.25 18.45 19.475 30.75 46.125 37.925 8.2 2.050 12.3 2.050 12.3 2.050v0c3.075 2.050 5.125 5.125 5.125 8.2 1.025 7.175 21.525 159.9 25.625 182.45v0c3.075 9.225 1.025 19.475-6.15 25.625M225.5 686.819c0-10.25-26.65-19.475-35.875-20.5v0c-20.5-2.050-41-1.025-60.475 1.025-10.25 1.025-49.2 10.25-49.2 19.475 0 8.2 34.85 17.425 53.3 18.45v0c19.475 1.025 38.95 1.025 57.4 0 11.275-2.050 34.85-9.225 34.85-18.45M3044.253 687.844c0-8.2-35.875-17.425-54.325-18.45v0c-19.475-1.025-37.925-1.025-57.4 0-11.275 2.050-34.85 9.225-34.85 18.45 0 10.25 27.675 19.475 36.9 20.5v0c20.5 2.050 39.975 1.025 60.475-1.025 10.25-1.025 49.2-10.25 49.2-19.475" />
<glyph unicode="&#xe8b4;" glyph-name="user" horiz-adv-x="964" d="M754.401 117.943q209.1-73.8 209.1-125.050v-108.65h-963.501v108.65q0 51.25 209.1 125.050 96.35 34.85 131.2 70.725t34.85 97.375q0 22.55-22.55 50.225t-32.8 74.825q-2.050 12.3-9.225 18.45t-14.35 8.2-14.35 17.425-9.225 44.075q0 16.4 5.125 26.65t9.225 12.3l4.1 4.1q-8.2 51.25-12.3 90.2-4.1 55.35 42.025 114.8t160.925 59.45 161.95-59.45 41-114.8l-12.3-90.2q18.45-8.2 18.45-43.050-2.050-28.7-9.225-44.075t-14.35-17.425-14.35-8.2-9.225-18.45q-8.2-49.2-31.775-75.85t-23.575-49.2q0-61.5 35.875-97.375t130.175-70.725z" />
<glyph unicode="&#xe8b5;" glyph-name="users" d="M1025.001-105.507h-229.6v153.75q0 55.35-30.75 83.025t-157.85 91.225q41 30.75 41 86.1 0 16.4-13.325 33.825t-19.475 52.275q-2.050 8.2-14.35 16.4t-14.35 43.050q0 24.6 12.3 30.75-6.15 34.85-8.2 61.5-4.1 38.95 23.575 79.95t97.375 41 98.4-41 24.6-79.95l-8.2-61.5q12.3-6.15 12.3-30.75-2.050-34.85-14.35-43.050t-14.35-16.4q-6.15-34.85-19.475-52.275t-13.325-33.825q0-43.050 21.525-67.65t78.925-49.2q114.8-47.15 133.25-82 6.15-8.2 9.225-62.525t5.125-103.525v-49.2zM524.801 163.043q186.55-79.95 186.55-127.1v-141.45h-711.351v188.6q0 45.1 86.1 79.95 77.9 32.8 106.6 65.6t28.7 90.2q0 20.5-19.475 45.1t-25.625 69.7q-2.050 10.25-18.45 22.55t-20.5 57.4q0 14.35 3.075 23.575t7.175 13.325l4.1 2.050q-6.15 47.15-10.25 84.050-4.1 51.25 33.825 105.575t130.175 54.325 130.175-54.325 33.825-105.575l-10.25-84.050q14.35-8.2 14.35-38.95-4.1-45.1-20.5-57.4t-18.45-22.55q-6.15-45.1-25.625-69.7t-19.475-45.1q0-57.4 28.7-90.2t106.6-65.6z" />
<glyph unicode="&#xe8ba;" glyph-name="cam" d="M512.5 447.994q65.6 0 109.675-45.1t44.075-108.65-45.1-108.65-108.65-45.1-108.65 45.1-45.1 108.65 45.1 108.65 108.65 45.1zM922.501 601.744q43.050 0 72.775-29.725t29.725-72.775v-461.25q0-41-29.725-71.75t-72.775-30.75h-820.001q-41 0-71.75 30.75t-30.75 71.75v461.25q0 43.050 30.75 72.775t71.75 29.725h123q28.7 0 41 30.75l30.75 94.3q10.25 28.7 41 28.7h348.5q30.75 0 41-28.7l30.75-94.3q12.3-30.75 41-30.75h123zM512.5 37.993q106.6 0 181.425 74.825t74.825 181.425-74.825 181.425-181.425 74.825-181.425-74.825-74.825-181.425 74.825-181.425 181.425-74.825zM887.651 427.494q14.35 0 24.6 11.275t10.25 25.625-10.25 24.6-24.6 10.25q-36.9 0-36.9-34.85 0-16.4 11.275-26.65t25.625-10.25z" />
<glyph unicode="&#xe8bb;" glyph-name="layout" horiz-adv-x="615" d="M174.25 652.994q82 0 82-82v-92.25q0-82-82-82h-92.25q-82 0-82 82v92.25q0 82 82 82h92.25zM533.001 652.994q82 0 82-82v-92.25q0-82-82-82h-92.25q-82 0-82 82v92.25q0 82 82 82h92.25zM174.25 294.244q82 0 82-82v-92.25q0-82-82-82h-92.25q-82 0-82 82v92.25q0 82 82 82h92.25zM533.001 294.244q82 0 82-82v-92.25q0-82-82-82h-92.25q-82 0-82 82v92.25q0 82 82 82h92.25z" />
<glyph unicode="&#xe8c5;" glyph-name="menu" horiz-adv-x="718" d="M666.251 396.744q22.55 0 36.9-15.375t14.35-35.875-15.375-35.875-35.875-15.375h-615.001q-20.5 0-35.875 15.375t-15.375 35.875 14.35 35.875 36.9 15.375h615.001zM51.25 499.244q-20.5 0-35.875 15.375t-15.375 35.875 14.35 35.875 36.9 15.375h615.001q22.55 0 36.9-15.375t14.35-35.875-15.375-35.875-35.875-15.375h-615.001zM666.251 191.743q22.55 0 36.9-15.375t14.35-35.875-15.375-35.875-35.875-15.375h-615.001q-20.5 0-35.875 15.375t-15.375 35.875 14.35 35.875 36.9 15.375h615.001z" />
<glyph unicode="&#xe8d3;" glyph-name="info-circled" horiz-adv-x="943" d="M465.35 816.994q194.75 2.050 334.15-133.25t143.5-330.050q2.050-194.75-134.275-335.175t-331.075-144.525q-194.75-2.050-335.175 134.275t-142.475 331.075q-4.1 194.75 133.25 335.175t332.1 142.475zM518.65 661.194q-43.050 0-66.625-24.6t-23.575-51.25q-2.050-28.7 15.375-45.1t50.225-16.4q38.95 0 62.525 22.55t23.575 55.35q0 59.45-61.5 59.45zM395.65 52.343q30.75 0 86.1 26.65t108.65 79.95l-18.45 24.6q-49.2-36.9-73.8-36.9-14.35 0-4.1 38.95l43.050 164q26.65 98.4-22.55 98.4-30.75 0-91.225-29.725t-117.875-76.875l16.4-26.65q53.3 34.85 75.85 34.85 12.3 0 0-34.85l-36.9-155.8q-26.65-106.6 34.85-106.6z" />
<glyph unicode="&#xe8e1;" glyph-name="download" d="M992.201 189.693q18.45-10.25 27.675-32.8t3.075-41l-28.7-157.85q-4.1-20.5-22.55-33.825t-41-13.325h-836.401q-22.55 0-41 13.325t-22.55 33.825l-28.7 157.85q-10.25 49.2 32.8 73.8l161.95 110.7h100.45l-174.25-133.25h182.45q8.2 0 12.3-8.2l41-112.75h307.5l41 112.75q8.2 8.2 12.3 8.2h182.45l-174.25 133.25h100.45zM779.001 519.744l-266.5-250.1-266.5 250.1h170.15v262.4h194.75v-262.4h168.1z" />
<glyph unicode="&#xe8ea;" glyph-name="pencil" horiz-adv-x="800" d="M735.951 683.744q32.8-32.8 48.175-65.6t15.375-49.2v-16.4l-258.3-258.3-297.25-295.2-243.95-53.3 51.25 246 297.25 295.2 258.3 258.3q55.35 12.3 129.15-61.5zM229.6 27.743l24.6 24.6q-2.050 45.1-53.3 96.35-22.55 22.55-46.125 35.875t-35.875 13.325l-14.35 2.050-22.55-24.6-18.45-82q28.7-16.4 47.15-34.85 24.6-24.6 36.9-49.2z" />
<glyph unicode="&#xe900;" glyph-name="phone_iphone" d="M669.958 56.87v652.075h-418.722v-652.075h418.722zM460.596-128.504q28.351 0 49.069 20.718t20.718 49.069-20.718 49.069-49.069 20.718-49.069-20.718-20.718-49.069 20.718-49.069 49.069-20.718zM648.149 848.518q47.98 0 81.782-34.895t33.803-82.872v-789.467q0-47.98-33.803-82.872t-81.782-34.895h-372.926q-47.98 0-81.782 34.895t-33.803 82.872v789.467q0 47.98 33.803 82.872t81.782 34.895h372.926z" />
<glyph unicode="&#xe901;" glyph-name="th-list" d="M292.571 164.571v-109.714c0-30.286-24.571-54.857-54.857-54.857h-182.857c-30.286 0-54.857 24.571-54.857 54.857v109.714c0 30.286 24.571 54.857 54.857 54.857h182.857c30.286 0 54.857-24.571 54.857-54.857zM292.571 457.143v-109.714c0-30.286-24.571-54.857-54.857-54.857h-182.857c-30.286 0-54.857 24.571-54.857 54.857v109.714c0 30.286 24.571 54.857 54.857 54.857h182.857c30.286 0 54.857-24.571 54.857-54.857zM1024 164.571v-109.714c0-30.286-24.571-54.857-54.857-54.857h-548.571c-30.286 0-54.857 24.571-54.857 54.857v109.714c0 30.286 24.571 54.857 54.857 54.857h548.571c30.286 0 54.857-24.571 54.857-54.857zM292.571 749.714v-109.714c0-30.286-24.571-54.857-54.857-54.857h-182.857c-30.286 0-54.857 24.571-54.857 54.857v109.714c0 30.286 24.571 54.857 54.857 54.857h182.857c30.286 0 54.857-24.571 54.857-54.857zM1024 457.143v-109.714c0-30.286-24.571-54.857-54.857-54.857h-548.571c-30.286 0-54.857 24.571-54.857 54.857v109.714c0 30.286 24.571 54.857 54.857 54.857h548.571c30.286 0 54.857-24.571 54.857-54.857zM1024 749.714v-109.714c0-30.286-24.571-54.857-54.857-54.857h-548.571c-30.286 0-54.857 24.571-54.857 54.857v109.714c0 30.286 24.571 54.857 54.857 54.857h548.571c30.286 0 54.857-24.571 54.857-54.857z" />
<glyph unicode="&#xe902;" glyph-name="th" d="M292.571 164.571v-109.714c0-30.286-24.571-54.857-54.857-54.857h-182.857c-30.286 0-54.857 24.571-54.857 54.857v109.714c0 30.286 24.571 54.857 54.857 54.857h182.857c30.286 0 54.857-24.571 54.857-54.857zM292.571 457.143v-109.714c0-30.286-24.571-54.857-54.857-54.857h-182.857c-30.286 0-54.857 24.571-54.857 54.857v109.714c0 30.286 24.571 54.857 54.857 54.857h182.857c30.286 0 54.857-24.571 54.857-54.857zM658.286 164.571v-109.714c0-30.286-24.571-54.857-54.857-54.857h-182.857c-30.286 0-54.857 24.571-54.857 54.857v109.714c0 30.286 24.571 54.857 54.857 54.857h182.857c30.286 0 54.857-24.571 54.857-54.857zM292.571 749.714v-109.714c0-30.286-24.571-54.857-54.857-54.857h-182.857c-30.286 0-54.857 24.571-54.857 54.857v109.714c0 30.286 24.571 54.857 54.857 54.857h182.857c30.286 0 54.857-24.571 54.857-54.857zM658.286 457.143v-109.714c0-30.286-24.571-54.857-54.857-54.857h-182.857c-30.286 0-54.857 24.571-54.857 54.857v109.714c0 30.286 24.571 54.857 54.857 54.857h182.857c30.286 0 54.857-24.571 54.857-54.857zM1024 164.571v-109.714c0-30.286-24.571-54.857-54.857-54.857h-182.857c-30.286 0-54.857 24.571-54.857 54.857v109.714c0 30.286 24.571 54.857 54.857 54.857h182.857c30.286 0 54.857-24.571 54.857-54.857zM658.286 749.714v-109.714c0-30.286-24.571-54.857-54.857-54.857h-182.857c-30.286 0-54.857 24.571-54.857 54.857v109.714c0 30.286 24.571 54.857 54.857 54.857h182.857c30.286 0 54.857-24.571 54.857-54.857zM1024 457.143v-109.714c0-30.286-24.571-54.857-54.857-54.857h-182.857c-30.286 0-54.857 24.571-54.857 54.857v109.714c0 30.286 24.571 54.857 54.857 54.857h182.857c30.286 0 54.857-24.571 54.857-54.857zM1024 749.714v-109.714c0-30.286-24.571-54.857-54.857-54.857h-182.857c-30.286 0-54.857 24.571-54.857 54.857v109.714c0 30.286 24.571 54.857 54.857 54.857h182.857c30.286 0 54.857-24.571 54.857-54.857z" />
<glyph unicode="&#xe903;" glyph-name="book" horiz-adv-x="718" d="M699.051 595.594q18.45-8.2 18.45-28.7v-576.051q0-14.35-12.3-25.625t-28.7-11.275q-47.15 0-47.15 36.9v535.051q0 12.3-12.3 18.45l-414.1 221.4q-32.8 10.25-69.7-10.25-45.1-20.5-57.4-45.1l418.2-233.7q18.45-8.2 18.45-28.7v-563.751q0-22.55-18.45-28.7-6.15-4.1-16.4-4.1-14.35 0-20.5 4.1-8.2 6.15-207.050 130.175t-217.3 134.275q-26.65 18.45-26.65 34.85l-6.15 537.101q0 28.7 14.35 53.3 28.7 47.15 104.55 78.925t118.9 9.225z" />
<glyph unicode="&#xe910;" glyph-name="login" horiz-adv-x="923" d="M820.001 806.744q43.050 0 72.775-29.725t29.725-72.775v-717.501q0-41-29.725-71.75t-72.775-30.75h-461.25q-41 0-70.725 30.75t-29.725 71.75v102.5h100.45v-102.5h461.25v717.501h-461.25v-153.75h-100.45v153.75q0 43.050 29.725 72.775t70.725 29.725h461.25zM461.25 119.993v123h-461.25v153.75h461.25v123l205-198.85z" />
</font>
</defs>
</svg>
